<svg xmlns="http://www.w3.org/2000/svg" viewBox="0 0 265.22 82.18"><defs><style>.cls-1,.cls-2,.cls-3,.cls-4,.cls-5,.cls-6,.cls-7,.cls-8{fill:none;stroke-width:5.44px;}.cls-1{stroke:#e2001a;}.cls-2{stroke:#e2007a;}.cls-3{stroke:#f29400;}.cls-4{stroke:#fcea0d;}.cls-5{stroke:#c9d30e;}.cls-6{stroke:#00aad3;}.cls-7{stroke:#93117e;}.cls-8{stroke:gray;}.cls-9{fill:#e8522f;}.cls-10{fill:#fff;}</style></defs><title>Logo-MG-LPolyvalent-2018</title><g id="Calque_2" data-name="Calque 2"><g id="Calque_1-2" data-name="Calque 1"><line class="cls-1" x1="25.62" y1="25.62" x2="25.62" y2="25.62"/><line class="cls-1" x1="25.62" y1="25.62" x2="25.62" y2="25.62"/><line class="cls-2" x1="4.36" y1="11.4" x2="25.62" y2="25.62"/><line class="cls-3" x1="20.64" y1="0.53" x2="25.62" y2="25.62"/><line class="cls-1" x1="25.62" y1="25.62" x2="25.62" y2="25.62"/><line class="cls-1" x1="25.62" y1="25.62" x2="25.62" y2="25.62"/><line class="cls-1" x1="25.62" y1="25.62" x2="25.62" y2="25.62"/><line class="cls-1" x1="25.62" y1="25.62" x2="25.62" y2="25.62"/><line class="cls-1" x1="25.62" y1="25.62" x2="25.62" y2="25.62"/><line class="cls-1" x1="25.62" y1="25.62" x2="25.62" y2="25.62"/><line class="cls-4" x1="39.84" y1="4.36" x2="25.62" y2="25.62"/><line class="cls-5" x1="50.71" y1="20.64" x2="25.62" y2="25.62"/><line class="cls-6" x1="46.89" y1="39.84" x2="25.62" y2="25.62"/><line class="cls-7" x1="25.62" y1="25.62" x2="30.6" y2="50.71"/><line class="cls-8" x1="25.62" y1="25.62" x2="11.4" y2="46.89"/><line class="cls-1" x1="0.53" y1="30.61" x2="25.62" y2="25.62"/><path class="cls-9" d="M39.35,54.81a1,1,0,0,1,.58.13l.22.16,6.74,6.74c.27.27.45.4.55.4s.27-.12.51-.36l6.73-6.74a1.25,1.25,0,0,1,.85-.33c.63,0,1,.34,1,1v16q-.07,1-1,1a.93.93,0,0,1-1-1V59.06c0-.22-.11-.33-.25-.33a.89.89,0,0,0-.55.33L48,64.73c-.29.29-.49.44-.58.44s-.26-.15-.55-.44Q43.82,61.66,41.14,59c-.24-.24-.43-.37-.55-.37s-.22.14-.22.41V71.8q-.07,1-1,1a.93.93,0,0,1-1-1v-16A.93.93,0,0,1,39.35,54.81Z"/><path class="cls-9" d="M76.35,72.82c-.61,0-.94-.33-1-1v-1c0-.44-.14-.65-.33-.65a1.06,1.06,0,0,0-.66.32,8.9,8.9,0,0,1-6,2.31,8.66,8.66,0,0,1-5.64-2,9,9,0,0,1-3.15-5.1q-.21-1,1-1,.91,0,1,1a7.19,7.19,0,0,0,2.58,3.66,7,7,0,0,0,9.21-10.58,7,7,0,0,0-11.72,3c-.14.65-.5,1-1.06,1-.8,0-1.13-.33-1-1a8.95,8.95,0,0,1,8.79-7.07,8.23,8.23,0,0,1,5.67,2l.33.29a1.12,1.12,0,0,0,.7.37q.28,0,.33-.66v-1c0-.66.37-1,1-1s.94.33,1,1v16Q77.27,72.82,76.35,72.82Z"/><path class="cls-9" d="M82.47,57.92a8.54,8.54,0,0,1,5-3.11.7.7,0,0,1,.73.22,1.2,1.2,0,0,1,.29.81q0,.84-1,1a7.22,7.22,0,0,0-3.63,2.45,6.93,6.93,0,0,0-1.42,4.25v8.53c0,.49-.38.73-1,.73s-1-.24-1-.73V63.63A8.8,8.8,0,0,1,82.47,57.92Z"/><path class="cls-9" d="M90.66,46.76a1.08,1.08,0,1,1,1.07,1.1A1,1,0,0,1,90.66,46.76Zm1,8.05c.63,0,1,.34,1,1v16a.94.94,0,0,1-1,1,.93.93,0,0,1-1-1v-16A.93.93,0,0,1,91.69,54.81Z"/><path class="cls-9" d="M144.52,77.6a7,7,0,0,0,1.42-4.27V71c0-.44-.14-.66-.34-.66a1.15,1.15,0,0,0-.69.36l-.33.3a8.28,8.28,0,0,1-5.67,2,9,9,0,0,1-8.79-7.06c-.14-.66.2-1,1-1q.84,0,1,1A7,7,0,0,0,138.91,71a7,7,0,1,0,0-14.06,6.86,6.86,0,0,0-4.23,1.43,7.11,7.11,0,0,0-2.58,3.66q-.07,1-1,1-1.2,0-1-1A9,9,0,0,1,133.29,57,9,9,0,0,1,148,64v9.29a8.83,8.83,0,0,1-2,5.71,8.54,8.54,0,0,1-5.06,3.11.68.68,0,0,1-.73-.22,1.16,1.16,0,0,1-.29-.8c0-.56.34-.9,1-1A6.63,6.63,0,0,0,144.52,77.6Z"/><path class="cls-9" d="M167.64,72.82q-.91,0-1-1v-1c0-.44-.13-.65-.33-.65a1.11,1.11,0,0,0-.66.32,8.89,8.89,0,0,1-6,2.31,8.66,8.66,0,0,1-5.63-2,9,9,0,0,1-3.15-5.1q-.22-1,1-1,.91,0,1,1a7.19,7.19,0,0,0,2.58,3.66,7,7,0,1,0,0-11.2,6.73,6.73,0,0,0-2.49,3.66c-.15.65-.5,1-1.06,1-.81,0-1.14-.33-1-1a8.95,8.95,0,0,1,8.78-7.07,8.24,8.24,0,0,1,5.68,2l.33.29a1.12,1.12,0,0,0,.69.37q.3,0,.33-.66v-1q.07-1,1-1t1,1v16Q168.56,72.82,167.64,72.82Z"/><path class="cls-9" d="M184.42,66a4.81,4.81,0,0,0-1-1.54,4.62,4.62,0,0,0-1.52-1,4.41,4.41,0,0,0-1.83-.38h-4.28a2.84,2.84,0,0,1-2.11-.9,3.07,3.07,0,0,1,0-4.28,2.94,2.94,0,0,1,2.11-.93h7.46a1,1,0,0,0,1-1,1,1,0,0,0-.29-.73,1,1,0,0,0-.72-.3h-7.46a4.73,4.73,0,0,0-2,.4,5.06,5.06,0,0,0-1.59,1.09A5.12,5.12,0,0,0,171.16,58a5.25,5.25,0,0,0-.39,2,5.08,5.08,0,0,0,.39,2,5.14,5.14,0,0,0,1.07,1.62,5.06,5.06,0,0,0,1.59,1.09,4.73,4.73,0,0,0,2,.4h4.28a2.62,2.62,0,0,1,1.92.82,2.74,2.74,0,0,1,.8,2,2.7,2.7,0,0,1-.8,1.95,2.58,2.58,0,0,1-1.92.82h-7.91a.93.93,0,0,0-.71.3,1.05,1.05,0,0,0,0,1.47.93.93,0,0,0,.71.3h7.91a4.58,4.58,0,0,0,1.83-.38,4.78,4.78,0,0,0,1.52-1,4.86,4.86,0,0,0,1-1.55,4.76,4.76,0,0,0,.37-1.87A4.81,4.81,0,0,0,184.42,66Z"/><path class="cls-9" d="M203.84,79a8.83,8.83,0,0,1-2-5.71V71q0-.66-.33-.66a1.14,1.14,0,0,0-.7.36l-.33.3a8.28,8.28,0,0,1-5.67,2,8.76,8.76,0,0,1-5.67-2,8.49,8.49,0,0,1-3.11-5q-.22-1,1-1,.84,0,1,1A7,7,0,0,0,194.8,71a7,7,0,1,0,0-14.06A7.11,7.11,0,0,0,188,62.06a.93.93,0,0,1-1,1c-.8,0-1.13-.33-1-1A9,9,0,0,1,189.18,57,9,9,0,0,1,203.84,64v9.29a7,7,0,0,0,1.41,4.27,6.66,6.66,0,0,0,3.64,2.5c.68.15,1,.49,1,1a1.12,1.12,0,0,1-.3.8.67.67,0,0,1-.73.22A8.52,8.52,0,0,1,203.84,79Z"/><path class="cls-9" d="M208.16,54.81q.92,0,1,1v8a6.84,6.84,0,0,0,2,5,6.75,6.75,0,0,0,5,2.06,6.89,6.89,0,0,0,5-2.08,6.77,6.77,0,0,0,2.1-5v-8q.08-1,1-1t1,1v8a8.67,8.67,0,0,1-2.69,6.39,8.82,8.82,0,0,1-6.42,2.65,8.63,8.63,0,0,1-6.37-2.65,8.74,8.74,0,0,1-2.64-6.39v-8Q207.25,54.81,208.16,54.81Z"/><path class="cls-9" d="M255.27,58.22c0-.78-.52-1.24-1.54-1.36h-5.49c-.71,0-1.06-.39-1.06-1s.35-1,1.06-1h15.92c.71,0,1.06.39,1.06,1s-.35,1-1.06,1h-5.27c-1.05,0-1.57.42-1.57,1.25V71.8c-.05.68-.39,1-1,1a.92.92,0,0,1-1-1Z"/><path class="cls-9" d="M113.25,60.27a8.74,8.74,0,0,0-1.9-2.7,9.2,9.2,0,0,0-2.72-1.84,7.85,7.85,0,0,0-3.26-.69,9.53,9.53,0,0,0-3.49.78,9,9,0,0,0-2.78,1.87,8.83,8.83,0,0,0-1.82,9.59A8.36,8.36,0,0,0,99.16,70a8.74,8.74,0,0,0,6.13,2.45,9.83,9.83,0,0,0,3.45-.56A6.76,6.76,0,0,0,111.43,70a1,1,0,0,0,.29-.72,1,1,0,0,0-1.73-.71A7,7,0,0,1,107.87,70a6.53,6.53,0,0,1-2.58.51,6.44,6.44,0,0,1-2.35-.43,7.05,7.05,0,0,1-2-1.17,6.73,6.73,0,0,1-1.48-1.78,6.13,6.13,0,0,1-.78-2.22l0-.14H113a1.14,1.14,0,0,0,.74-.3.87.87,0,0,0,.28-.67,1.41,1.41,0,0,0,0-.18A8.73,8.73,0,0,0,113.25,60.27ZM98.7,62.73l0-.15a6.86,6.86,0,0,1,.8-2.16A6.41,6.41,0,0,1,101,58.68a7.23,7.23,0,0,1,2-1.15,6.26,6.26,0,0,1,2.33-.43,6.35,6.35,0,0,1,2.34.43,7.17,7.17,0,0,1,2,1.15,6.81,6.81,0,0,1,2.29,3.9l0,.15Z"/><polygon class="cls-10" points="98.81 64.88 98.81 64.87 98.81 64.87 98.81 64.88"/><path class="cls-9" d="M245.5,60.27a8.74,8.74,0,0,0-1.9-2.7,9.2,9.2,0,0,0-2.72-1.84,7.85,7.85,0,0,0-3.26-.69,9.53,9.53,0,0,0-3.49.78,9,9,0,0,0-2.78,1.87,8.83,8.83,0,0,0-1.82,9.59A8.36,8.36,0,0,0,231.41,70a8.74,8.74,0,0,0,6.13,2.45,9.83,9.83,0,0,0,3.45-.56A6.83,6.83,0,0,0,243.68,70a1,1,0,0,0,.29-.72,1,1,0,0,0-1.73-.71A7,7,0,0,1,240.12,70a6.53,6.53,0,0,1-2.58.51,6.44,6.44,0,0,1-2.35-.43,7.05,7.05,0,0,1-2-1.17,6.73,6.73,0,0,1-1.48-1.78,6.13,6.13,0,0,1-.78-2.22l0-.14h14.35a1.14,1.14,0,0,0,.74-.3.87.87,0,0,0,.28-.67,1.41,1.41,0,0,0,0-.18A8.73,8.73,0,0,0,245.5,60.27ZM231,62.73l0-.15a6.86,6.86,0,0,1,.8-2.16,6.41,6.41,0,0,1,1.45-1.74,7.23,7.23,0,0,1,2-1.15,6.26,6.26,0,0,1,2.33-.43,6.35,6.35,0,0,1,2.34.43,7.17,7.17,0,0,1,2,1.15,6.81,6.81,0,0,1,2.29,3.9l0,.15Z"/><polygon class="cls-10" points="231.06 64.88 231.06 64.87 231.06 64.87 231.06 64.88"/><path class="cls-9" d="M59.67,36.36a.92.92,0,0,1-.93.93,5,5,0,0,1-2.31-.54,4.82,4.82,0,0,1-1.51-1.26,4.88,4.88,0,0,1-.84-1.59,5.26,5.26,0,0,1-.26-1.5V18.81a.93.93,0,1,1,1.86,0V32.4a3.82,3.82,0,0,0,.11.72,3,3,0,0,0,.43,1,2.91,2.91,0,0,0,2.52,1.32.92.92,0,0,1,.93.93Z"/><path class="cls-9" d="M73.83,41.79a.93.93,0,1,1-1.86,0v-6.9a7.27,7.27,0,0,1-2.37,1.76,7.31,7.31,0,0,1-5.82.07,7.22,7.22,0,0,1-3.84-3.84,7,7,0,0,1-.57-2.82V23.64a.93.93,0,1,1,1.86,0v6.42a5.24,5.24,0,0,0,.42,2.09A5.43,5.43,0,0,0,64.52,35a5.38,5.38,0,0,0,4.12,0,5.5,5.5,0,0,0,1.68-1.1,5.31,5.31,0,0,0,1.16-1.63,5.55,5.55,0,0,0,.49-2V23.64a.93.93,0,1,1,1.86,0V41.79Z"/><path class="cls-9" d="M86.37,26.13a6.22,6.22,0,0,0-1.71-1.06,5.27,5.27,0,0,0-2.07-.41,5.19,5.19,0,0,0-2.08.42,5.45,5.45,0,0,0-1.71,1.16A5.38,5.38,0,0,0,77.64,28a5.32,5.32,0,0,0-.42,2.1,5.24,5.24,0,0,0,.42,2.09A5.43,5.43,0,0,0,80.51,35a5.19,5.19,0,0,0,2.08.42,5.27,5.27,0,0,0,2.07-.4,5.6,5.6,0,0,0,1.71-1.13.94.94,0,0,1,1.32,0,.88.88,0,0,1,.26.68,1.07,1.07,0,0,1-.35.73,6.58,6.58,0,0,1-.73.62,6.37,6.37,0,0,1-1.11.64,7.84,7.84,0,0,1-1.44.5,7.37,7.37,0,0,1-6.83-1.85,7,7,0,0,1-1.56-2.28,7.19,7.19,0,0,1-.57-2.88,7.07,7.07,0,0,1,.56-2.8A7.14,7.14,0,0,1,77.45,25a7.47,7.47,0,0,1,2.31-1.56,7.88,7.88,0,0,1,2.89-.65,5.91,5.91,0,0,1,1.67.23,7.94,7.94,0,0,1,1.38.54,7.51,7.51,0,0,1,1.09.67q.48.36.78.63a1.25,1.25,0,0,1,.32.56.67.67,0,0,1-.2.73.94.94,0,0,1-1.32,0Z"/><path class="cls-9" d="M91.29,30.93a5.1,5.1,0,0,0,.63,1.79,5.53,5.53,0,0,0,2.79,2.37,5.49,5.49,0,0,0,4-.06,5.6,5.6,0,0,0,1.71-1.13.93.93,0,0,1,1.32,1.32,5.62,5.62,0,0,1-2.23,1.58,8.19,8.19,0,0,1-2.87.46,7.27,7.27,0,0,1-5.1-2,7,7,0,0,1-1.56-2.28,7.19,7.19,0,0,1-.57-2.88,7.07,7.07,0,0,1,.56-2.8A7.14,7.14,0,0,1,91.46,25a7.47,7.47,0,0,1,2.31-1.56,7.88,7.88,0,0,1,2.89-.65,6.6,6.6,0,0,1,2.72.57,7.78,7.78,0,0,1,2.26,1.53,7.31,7.31,0,0,1,2.22,5,.83.83,0,0,1-.25.78,1,1,0,0,1-.68.27Zm5.31-6.27a5.09,5.09,0,0,0-1.87.35,5.73,5.73,0,0,0-1.59.93A5.07,5.07,0,0,0,92,27.33a5.62,5.62,0,0,0-.65,1.74h10.59a5.4,5.4,0,0,0-.66-1.74,5.28,5.28,0,0,0-1.18-1.39A5.73,5.73,0,0,0,98.48,25,5.15,5.15,0,0,0,96.6,24.66Zm2.85-8a.79.79,0,0,1,.71-.13.86.86,0,0,1,.55.43,1,1,0,0,1-.3,1.29l-4.26,2.49a1,1,0,0,1-.69.11,1,1,0,0,1-.6-.44,1.07,1.07,0,0,1-.06-.7,1,1,0,0,1,.39-.56Z"/><path class="cls-9" d="M107.19,30.93a5.1,5.1,0,0,0,.63,1.79,5.53,5.53,0,0,0,2.79,2.37,5.49,5.49,0,0,0,4-.06,5.6,5.6,0,0,0,1.71-1.13.93.93,0,0,1,1.32,1.32,5.62,5.62,0,0,1-2.23,1.58,8.19,8.19,0,0,1-2.87.46,7.27,7.27,0,0,1-5.1-2,7,7,0,0,1-1.56-2.28,7.19,7.19,0,0,1-.57-2.88,7.07,7.07,0,0,1,.56-2.8A7.14,7.14,0,0,1,107.36,25a7.47,7.47,0,0,1,2.31-1.56,7.88,7.88,0,0,1,2.89-.65,6.6,6.6,0,0,1,2.72.57,7.78,7.78,0,0,1,2.26,1.53,7.31,7.31,0,0,1,2.22,5,.83.83,0,0,1-.25.78,1,1,0,0,1-.68.27Zm5.31-6.27a5.09,5.09,0,0,0-1.87.35,5.73,5.73,0,0,0-1.59.93,5.07,5.07,0,0,0-1.17,1.39,5.62,5.62,0,0,0-.65,1.74h10.59a5.4,5.4,0,0,0-.66-1.74A5.28,5.28,0,0,0,116,25.94a5.73,5.73,0,0,0-1.59-.93A5.15,5.15,0,0,0,112.5,24.66Z"/><path class="cls-9" d="M136.29,37.29a6.49,6.49,0,0,1-3.06-.85,9.88,9.88,0,0,1-2.37-1.88v7.23a.93.93,0,1,1-1.86,0V30a7.19,7.19,0,0,1,.57-2.88,7,7,0,0,1,1.56-2.28,7.27,7.27,0,0,1,5.1-2,7.11,7.11,0,0,1,2.85.57,7.2,7.2,0,0,1,2.3,1.56,7.55,7.55,0,0,1,1.54,2.3,7.08,7.08,0,0,1,0,5.59A7.65,7.65,0,0,1,139,36.71,6.65,6.65,0,0,1,136.29,37.29ZM130.86,30a5.51,5.51,0,0,0,.48,2.16,5.76,5.76,0,0,0,1.17,1.71,5.18,5.18,0,0,0,3.72,1.53,5.32,5.32,0,0,0,2.1-.42,5.26,5.26,0,0,0,2.88-2.88,5.32,5.32,0,0,0,.42-2.1,5.19,5.19,0,0,0-.42-2.08,5.37,5.37,0,0,0-2.88-2.87,5.32,5.32,0,0,0-2.1-.42,5.19,5.19,0,0,0-2.08.42,5.49,5.49,0,0,0-2.87,2.87A5.19,5.19,0,0,0,130.86,30Z"/><path class="cls-9" d="M151.65,22.77a6.66,6.66,0,0,1,2.75.59,7.58,7.58,0,0,1,3.87,3.88,7.1,7.1,0,0,1,0,5.6,7.5,7.5,0,0,1-1.54,2.29,7.2,7.2,0,0,1-2.3,1.56,7.11,7.11,0,0,1-2.85.57,7.27,7.27,0,0,1-5.1-2,7,7,0,0,1-1.56-2.28,7.19,7.19,0,0,1-.57-2.88,7.07,7.07,0,0,1,.56-2.8A7.14,7.14,0,0,1,146.45,25a7.47,7.47,0,0,1,2.31-1.56A7.88,7.88,0,0,1,151.65,22.77Zm-5.43,7.29a5.24,5.24,0,0,0,.42,2.09A5.43,5.43,0,0,0,149.51,35a5.19,5.19,0,0,0,2.08.42,5.32,5.32,0,0,0,2.1-.42,5.31,5.31,0,0,0,2.88-2.86,5.24,5.24,0,0,0,.42-2.09,5.41,5.41,0,0,0-1.57-3.82,5.42,5.42,0,0,0-1.73-1.16,5.32,5.32,0,0,0-2.1-.42,5.19,5.19,0,0,0-2.08.42,5.45,5.45,0,0,0-1.71,1.16A5.38,5.38,0,0,0,146.64,28,5.32,5.32,0,0,0,146.22,30.06Z"/><path class="cls-9" d="M166.23,36.36a.92.92,0,0,1-.93.93,5,5,0,0,1-2.31-.54,4.82,4.82,0,0,1-1.51-1.26,4.88,4.88,0,0,1-.84-1.59,5.26,5.26,0,0,1-.26-1.5V18.81a.93.93,0,1,1,1.86,0V32.4a3.82,3.82,0,0,0,.11.72,3,3,0,0,0,.43,1,2.91,2.91,0,0,0,2.52,1.32.92.92,0,0,1,.93.93Z"/><path class="cls-9" d="M180.39,41.79a.93.93,0,1,1-1.86,0v-6.9a7.27,7.27,0,0,1-2.37,1.76,7.31,7.31,0,0,1-5.82.07,7.22,7.22,0,0,1-3.84-3.84,7,7,0,0,1-.57-2.82V23.64a.93.93,0,1,1,1.86,0v6.42a5.24,5.24,0,0,0,.42,2.09A5.43,5.43,0,0,0,171.08,35a5.38,5.38,0,0,0,4.12,0,5.5,5.5,0,0,0,1.68-1.1A5.31,5.31,0,0,0,178,32.3a5.55,5.55,0,0,0,.49-2V23.64a.93.93,0,1,1,1.86,0V41.79Z"/><path class="cls-9" d="M181.89,24.09a1,1,0,0,1,0-.75.92.92,0,0,1,.48-.54.83.83,0,0,1,.72,0,.93.93,0,0,1,.48.48l4.17,10.62,4.32-10.62a1.24,1.24,0,0,1,.54-.48.76.76,0,0,1,.66,0,.9.9,0,0,1,.48,1.2l-.25.62-.8,2q-.57,1.39-1.53,3.81l-2.43,6.13a1.35,1.35,0,0,1-.34.54.92.92,0,0,1-.65.21.9.9,0,0,1-.67-.25,1.48,1.48,0,0,1-.35-.5q-1.29-3.45-2.2-5.82T183,26.88c-.39-1-.68-1.68-.86-2.11S181.89,24.11,181.89,24.09Z"/><path class="cls-9" d="M200.94,22.77a6.66,6.66,0,0,1,2.75.59,7.58,7.58,0,0,1,3.87,3.88,6.88,6.88,0,0,1,.58,2.82v6.33a.93.93,0,1,1-1.86,0V34.56a9.39,9.39,0,0,1-2.38,1.91,6,6,0,0,1-3,.79,7.27,7.27,0,0,1-5.1-2,7,7,0,0,1-1.56-2.28,7.19,7.19,0,0,1-.57-2.88,7.07,7.07,0,0,1,.56-2.8A7.14,7.14,0,0,1,195.74,25a7.47,7.47,0,0,1,2.31-1.56A7.88,7.88,0,0,1,200.94,22.77Zm-5.43,7.29a5.24,5.24,0,0,0,.42,2.09A5.43,5.43,0,0,0,198.8,35a5.38,5.38,0,0,0,4.12,0,5.44,5.44,0,0,0,2.87-2.82,6,6,0,0,0,.49-2.15,5.41,5.41,0,0,0-1.57-3.82A5.42,5.42,0,0,0,203,25.08a5.32,5.32,0,0,0-2.1-.42,5.19,5.19,0,0,0-2.08.42,5.45,5.45,0,0,0-1.71,1.16A5.38,5.38,0,0,0,195.93,28,5.32,5.32,0,0,0,195.51,30.06Z"/><path class="cls-9" d="M215.67,36.36a.92.92,0,0,1-.93.93,5,5,0,0,1-2.31-.54,4.82,4.82,0,0,1-1.51-1.26,4.88,4.88,0,0,1-.84-1.59,5.26,5.26,0,0,1-.26-1.5V18.81a.93.93,0,1,1,1.86,0V32.4a3.82,3.82,0,0,0,.11.72,3,3,0,0,0,.43,1,2.91,2.91,0,0,0,2.52,1.32.92.92,0,0,1,.93.93Z"/><path class="cls-9" d="M218.31,30.93a5.1,5.1,0,0,0,.63,1.79,5.53,5.53,0,0,0,2.79,2.37,5.49,5.49,0,0,0,4-.06,5.6,5.6,0,0,0,1.71-1.13.93.93,0,0,1,1.32,1.32,5.62,5.62,0,0,1-2.23,1.58,8.19,8.19,0,0,1-2.87.46,7.27,7.27,0,0,1-5.1-2A7,7,0,0,1,217,32.94a7.19,7.19,0,0,1-.57-2.88,7.07,7.07,0,0,1,.56-2.8A7.14,7.14,0,0,1,218.48,25a7.47,7.47,0,0,1,2.31-1.56,7.88,7.88,0,0,1,2.89-.65,6.6,6.6,0,0,1,2.72.57,7.78,7.78,0,0,1,2.26,1.53,7.31,7.31,0,0,1,2.22,5,.83.83,0,0,1-.25.78,1,1,0,0,1-.68.27Zm5.31-6.27a5.09,5.09,0,0,0-1.87.35,5.73,5.73,0,0,0-1.59.93A5.07,5.07,0,0,0,219,27.33a5.62,5.62,0,0,0-.65,1.74h10.59a5.4,5.4,0,0,0-.66-1.74,5.28,5.28,0,0,0-1.18-1.39A5.73,5.73,0,0,0,225.5,25,5.15,5.15,0,0,0,223.62,24.66Z"/><path class="cls-9" d="M232.29,29.94a7,7,0,0,1,.57-2.82,7.31,7.31,0,0,1,3.84-3.84,7.26,7.26,0,0,1,5.64,0,7.22,7.22,0,0,1,3.84,3.84,7,7,0,0,1,.57,2.82v6.42a.93.93,0,1,1-1.86,0V29.94a5.19,5.19,0,0,0-.42-2.08A5.43,5.43,0,0,0,241.61,25a5.39,5.39,0,0,0-4.17,0,5.49,5.49,0,0,0-2.87,2.87,5.19,5.19,0,0,0-.42,2.08v6.42a.93.93,0,1,1-1.86,0Z"/><path class="cls-9" d="M248.4,18.81a.93.93,0,1,1,1.86,0v3.84h6.63a1.08,1.08,0,0,1,.77.27.92.92,0,0,1,0,1.32,1.08,1.08,0,0,1-.77.27h-6.63v5.55a5.24,5.24,0,0,0,.42,2.09A5.43,5.43,0,0,0,253.55,35a5.19,5.19,0,0,0,2.08.42,5.19,5.19,0,0,0,3.75-1.53,1,1,0,0,1,1.32-.12,1.07,1.07,0,0,1,.3.6,1,1,0,0,1-.15.69,7,7,0,0,1-2.34,1.64,7.16,7.16,0,0,1-2.88.58,7,7,0,0,1-2.82-.57A7.22,7.22,0,0,1,249,32.88a7,7,0,0,1-.57-2.82Z"/></g></g></svg>