<svg xmlns="http://www.w3.org/2000/svg" width="103.16mm" height="24.37mm" viewBox="0 0 292.42 69.08"><defs><style>.cls-1{fill:#636275;}.cls-2{fill:#e6007e;}.cls-3{fill:#f39200;}.cls-4{fill:#fcea10;}.cls-5{fill:#c8d419;}.cls-6{fill:#00abd7;}.cls-7{fill:#951b81;}.cls-8{fill:#9d9d9c;}.cls-9{fill:#e30613;}.cls-10{fill:#616271;}.cls-11{fill:#e94f2d;}</style></defs><title>PF_7lyc-CFE-UFA</title><g id="Calque_2" data-name="Calque 2"><g id="Calque_1-2" data-name="Calque 1"><path class="cls-1" d="M2.68,46.06H1.41V47h-1V45H3.84v1.15l-2,6.93H.65Z"/><path class="cls-1" d="M6.75,45H7.91v6.46a.64.64,0,0,0,.12.45.73.73,0,0,0,.44.15v1.09a4,4,0,0,1-.72-.06,1.21,1.21,0,0,1-.54-.24,1.11,1.11,0,0,1-.34-.49,2.37,2.37,0,0,1-.12-.82Z"/><path class="cls-1" d="M9.67,47.29l.79,3.59h0l.78-3.59h1.19L10.8,54.05a2.05,2.05,0,0,1-.25.65,1.67,1.67,0,0,1-.38.41,1.46,1.46,0,0,1-.46.21,2.16,2.16,0,0,1-.51.06H8.88V54.29h.26a.87.87,0,0,0,.3,0,.46.46,0,0,0,.22-.2,1.75,1.75,0,0,0,.18-.46c.05-.2.11-.46.18-.8l-1.58-5.5Z"/><path class="cls-1" d="M14.15,51.4a.57.57,0,0,0,.16.42.6.6,0,0,0,.41.14.46.46,0,0,0,.44-.19,1,1,0,0,0,.13-.39h1.16a2,2,0,0,1-.12.69,1.53,1.53,0,0,1-.35.54,1.6,1.6,0,0,1-.54.38,2,2,0,0,1-1.64-.09,1.64,1.64,0,0,1-.59-.61,1.59,1.59,0,0,1-.17-.52,4.36,4.36,0,0,1,0-.65V49.23a4.36,4.36,0,0,1,0-.65,1.59,1.59,0,0,1,.17-.52,1.64,1.64,0,0,1,.59-.61,2,2,0,0,1,1.64-.09,1.55,1.55,0,0,1,.55.38,1.72,1.72,0,0,1,.34.59,2.21,2.21,0,0,1,.12.74H15.29a.75.75,0,0,0-.15-.52.55.55,0,0,0-.42-.16.53.53,0,0,0-.41.16.72.72,0,0,0-.16.49Z"/><path class="cls-1" d="M18.19,50.61v.79a.57.57,0,0,0,.15.42.61.61,0,0,0,.42.14.45.45,0,0,0,.43-.19,1,1,0,0,0,.13-.39h1.16a2,2,0,0,1-.12.69,1.5,1.5,0,0,1-.34.54,1.75,1.75,0,0,1-.55.38,1.8,1.8,0,0,1-.71.13,1.77,1.77,0,0,1-.92-.22,1.67,1.67,0,0,1-.6-.61,1.59,1.59,0,0,1-.17-.52,4.36,4.36,0,0,1,0-.65V49.23a4.36,4.36,0,0,1,0-.65,1.59,1.59,0,0,1,.17-.52,1.67,1.67,0,0,1,.6-.61,1.77,1.77,0,0,1,.92-.22,1.88,1.88,0,0,1,.72.13,1.6,1.6,0,0,1,.54.38,1.77,1.77,0,0,1,.34.58,2,2,0,0,1,.12.7v1.59ZM19,44.93h1.23l-1.5,1.6H18Zm-.85,4.77h1.13V49a.72.72,0,0,0-.15-.49.53.53,0,0,0-.41-.16.54.54,0,0,0-.42.16.72.72,0,0,0-.15.49Z"/><path class="cls-1" d="M22.39,50.61v.79a.57.57,0,0,0,.15.42A.63.63,0,0,0,23,52a.47.47,0,0,0,.44-.19,1.2,1.2,0,0,0,.13-.39h1.15a2,2,0,0,1-.11.69,1.53,1.53,0,0,1-.35.54,1.55,1.55,0,0,1-.55.38A2,2,0,0,1,22,52.9a1.57,1.57,0,0,1-.59-.61,1.39,1.39,0,0,1-.17-.52,4.29,4.29,0,0,1-.05-.65V49.23a4.29,4.29,0,0,1,.05-.65,1.39,1.39,0,0,1,.17-.52,1.57,1.57,0,0,1,.59-.61,1.79,1.79,0,0,1,.92-.22,1.88,1.88,0,0,1,.72.13,1.43,1.43,0,0,1,.54.38,1.8,1.8,0,0,1,.35.58,2,2,0,0,1,.11.7v1.59Zm0-.91h1.14V49a.67.67,0,0,0-.16-.49.53.53,0,0,0-.41-.16.55.55,0,0,0-.42.16.72.72,0,0,0-.15.49Z"/><path class="cls-1" d="M27.64,48.91a.59.59,0,0,0-.19-.45.65.65,0,0,0-.4-.14.54.54,0,0,0-.42.17.61.61,0,0,0-.15.41.71.71,0,0,0,.08.31.78.78,0,0,0,.41.28l.68.27a1.65,1.65,0,0,1,.89.68,1.91,1.91,0,0,1,.25.94,1.69,1.69,0,0,1-.14.68,1.67,1.67,0,0,1-.35.55,1.64,1.64,0,0,1-.55.38,1.73,1.73,0,0,1-.69.13,2,2,0,0,1-.65-.11,1.87,1.87,0,0,1-.54-.33,1.69,1.69,0,0,1-.38-.54,2,2,0,0,1-.16-.76h1.09a1.23,1.23,0,0,0,.17.45.51.51,0,0,0,.46.2.71.71,0,0,0,.45-.16.58.58,0,0,0,.2-.46.69.69,0,0,0-.13-.41,1,1,0,0,0-.45-.3l-.56-.2a2,2,0,0,1-.86-.61,1.71,1.71,0,0,1-.17-1.66,1.66,1.66,0,0,1,.36-.53,1.93,1.93,0,0,1,.54-.35,1.84,1.84,0,0,1,.66-.12,1.59,1.59,0,0,1,.66.13,1.41,1.41,0,0,1,.51.35,1.46,1.46,0,0,1,.34.53,1.67,1.67,0,0,1,.13.67Z"/><path class="cls-1" d="M31.65,47.29h1.16v.53a2.46,2.46,0,0,1,.44-.42,1,1,0,0,1,.66-.17,1.05,1.05,0,0,1,1,.54,1.51,1.51,0,0,1,.15.48,5.17,5.17,0,0,1,0,.76V51.2c0,.42,0,.73,0,.92a1,1,0,0,1-.15.48,1.25,1.25,0,0,1-.38.38,1.28,1.28,0,0,1-.65.14,1.23,1.23,0,0,1-.61-.15,1.37,1.37,0,0,1-.46-.44h0v2.85H31.65ZM34,49.17a1,1,0,0,0-.13-.57.48.48,0,0,0-.43-.21.5.5,0,0,0-.42.19.81.81,0,0,0-.16.52v2.24a.64.64,0,0,0,.16.45.54.54,0,0,0,.42.17.47.47,0,0,0,.45-.2,1.06,1.06,0,0,0,.11-.48Z"/><path class="cls-1" d="M36.07,47.29h1.16v.62a3.33,3.33,0,0,1,.69-.5,1.8,1.8,0,0,1,.84-.18v1.22a1,1,0,0,0-.35-.06,1.43,1.43,0,0,0-.39.06,1.06,1.06,0,0,0-.39.21,1.24,1.24,0,0,0-.29.38,1.34,1.34,0,0,0-.11.6v3.41H36.07Z"/><path class="cls-1" d="M39.23,45h1.15v1.15H39.23Zm0,2.32h1.15v5.76H39.23Z"/><path class="cls-1" d="M43.37,53.05h-1l-1.5-5.76h1.23L42.85,51h0l.77-3.69h1.23Z"/><path class="cls-1" d="M46.39,50.61v.79a.54.54,0,0,0,.16.42A.6.6,0,0,0,47,52a.46.46,0,0,0,.44-.19,1.2,1.2,0,0,0,.13-.39h1.16a2,2,0,0,1-.12.69,1.53,1.53,0,0,1-.35.54,1.6,1.6,0,0,1-.54.38,1.85,1.85,0,0,1-.72.13A1.82,1.82,0,0,1,46,52.9a1.64,1.64,0,0,1-.59-.61,1.59,1.59,0,0,1-.17-.52,4.29,4.29,0,0,1-.05-.65V49.23a4.29,4.29,0,0,1,.05-.65,1.59,1.59,0,0,1,.17-.52,1.64,1.64,0,0,1,.59-.61,2,2,0,0,1,1.64-.09,1.55,1.55,0,0,1,.55.38,1.77,1.77,0,0,1,.34.58,2,2,0,0,1,.12.7v1.59Zm.86-5.68h1.22L47,46.53h-.75Zm-.86,4.77h1.14V49a.72.72,0,0,0-.15-.49.55.55,0,0,0-.42-.16.53.53,0,0,0-.41.16.67.67,0,0,0-.16.49Z"/><path class="cls-1" d="M51.64,48.91a.59.59,0,0,0-.19-.45.63.63,0,0,0-.4-.14.54.54,0,0,0-.42.17.61.61,0,0,0-.15.41.71.71,0,0,0,.08.31.78.78,0,0,0,.41.28l.68.27a1.65,1.65,0,0,1,.89.68,1.81,1.81,0,0,1,.25.94,1.68,1.68,0,0,1-.13.68,1.87,1.87,0,0,1-.36.55,1.6,1.6,0,0,1-.54.38,1.82,1.82,0,0,1-.7.13,2,2,0,0,1-.65-.11,1.87,1.87,0,0,1-.54-.33,1.69,1.69,0,0,1-.38-.54,2,2,0,0,1-.15-.76h1.09a1.06,1.06,0,0,0,.16.45.52.52,0,0,0,.46.2.67.67,0,0,0,.45-.16.58.58,0,0,0,.2-.46.63.63,0,0,0-.13-.41,1,1,0,0,0-.45-.3l-.56-.2a2,2,0,0,1-.86-.61,1.61,1.61,0,0,1-.31-1,1.72,1.72,0,0,1,.14-.68,1.54,1.54,0,0,1,.37-.53,1.68,1.68,0,0,1,.54-.35,1.76,1.76,0,0,1,.66-.12,1.57,1.57,0,0,1,.65.13,1.54,1.54,0,0,1,.52.35,1.79,1.79,0,0,1,.34.53,1.85,1.85,0,0,1,.12.67Z"/><path class="cls-1" d="M57.75,48.91a.59.59,0,0,0-.18-.45.68.68,0,0,0-.41-.14.54.54,0,0,0-.42.17.61.61,0,0,0-.15.41.71.71,0,0,0,.08.31.82.82,0,0,0,.41.28l.68.27a1.68,1.68,0,0,1,.9.68,1.91,1.91,0,0,1,.24.94,1.68,1.68,0,0,1-.13.68,1.87,1.87,0,0,1-.36.55,1.6,1.6,0,0,1-.54.38,1.82,1.82,0,0,1-.7.13,2,2,0,0,1-.64-.11,1.63,1.63,0,0,1-.54-.33,1.43,1.43,0,0,1-.38-.54,1.81,1.81,0,0,1-.16-.76h1.09a1.06,1.06,0,0,0,.16.45.52.52,0,0,0,.46.2.67.67,0,0,0,.45-.16.58.58,0,0,0,.2-.46.63.63,0,0,0-.13-.41,1,1,0,0,0-.45-.3l-.56-.2a1.87,1.87,0,0,1-.85-.61,1.56,1.56,0,0,1-.32-1,1.72,1.72,0,0,1,.14-.68A1.54,1.54,0,0,1,56,47.7a1.68,1.68,0,0,1,.54-.35,1.76,1.76,0,0,1,.66-.12,1.57,1.57,0,0,1,.65.13,1.54,1.54,0,0,1,.52.35,1.79,1.79,0,0,1,.34.53,1.85,1.85,0,0,1,.12.67Z"/><path class="cls-1" d="M59.55,49.23a4.36,4.36,0,0,1,0-.65,1.59,1.59,0,0,1,.17-.52,1.72,1.72,0,0,1,.59-.61,1.82,1.82,0,0,1,.92-.22,1.77,1.77,0,0,1,.92.22,1.57,1.57,0,0,1,.59.61,1.6,1.6,0,0,1,.18.52,4.36,4.36,0,0,1,0,.65v1.89a4.36,4.36,0,0,1,0,.65,1.6,1.6,0,0,1-.18.52,1.57,1.57,0,0,1-.59.61,1.77,1.77,0,0,1-.92.22,1.82,1.82,0,0,1-.92-.22,1.72,1.72,0,0,1-.59-.61,1.59,1.59,0,0,1-.17-.52,4.36,4.36,0,0,1,0-.65Zm1.16,2.08a.7.7,0,0,0,.15.49.53.53,0,0,0,.41.16.54.54,0,0,0,.42-.16.7.7,0,0,0,.15-.49V49a.72.72,0,0,0-.15-.49.54.54,0,0,0-.42-.16.53.53,0,0,0-.41.16.72.72,0,0,0-.15.49Z"/><path class="cls-1" d="M67.32,53.05H66.16V52.5h0a1.71,1.71,0,0,1-.44.45,1.18,1.18,0,0,1-.65.17,1.35,1.35,0,0,1-.44-.07.93.93,0,0,1-.38-.25,1,1,0,0,1-.27-.43,1.82,1.82,0,0,1-.11-.66V47.29H65v4a.76.76,0,0,0,.15.5.52.52,0,0,0,.42.18.47.47,0,0,0,.45-.2,1.08,1.08,0,0,0,.13-.59V47.29h1.16Z"/><path class="cls-1" d="M70.37,48.91a.59.59,0,0,0-.18-.45.68.68,0,0,0-.41-.14.54.54,0,0,0-.42.17.6.6,0,0,0-.14.41.7.7,0,0,0,.07.31.82.82,0,0,0,.41.28l.68.27a1.68,1.68,0,0,1,.9.68,1.91,1.91,0,0,1,.24.94,1.68,1.68,0,0,1-.13.68,1.87,1.87,0,0,1-.36.55,1.6,1.6,0,0,1-.54.38,1.78,1.78,0,0,1-.7.13,2,2,0,0,1-.64-.11,1.63,1.63,0,0,1-.54-.33,1.43,1.43,0,0,1-.38-.54,2,2,0,0,1-.16-.76h1.09a1.21,1.21,0,0,0,.16.45.52.52,0,0,0,.46.2.67.67,0,0,0,.45-.16.58.58,0,0,0,.2-.46.69.69,0,0,0-.12-.41,1,1,0,0,0-.46-.3l-.56-.2a1.92,1.92,0,0,1-.85-.61,1.56,1.56,0,0,1-.32-1,1.72,1.72,0,0,1,.14-.68,1.54,1.54,0,0,1,.37-.53,1.93,1.93,0,0,1,.54-.35,1.76,1.76,0,0,1,.66-.12,1.57,1.57,0,0,1,.65.13,1.54,1.54,0,0,1,.52.35,1.61,1.61,0,0,1,.34.53,1.85,1.85,0,0,1,.12.67Z"/><path class="cls-1" d="M75.61,51.4a.57.57,0,0,0,.15.42.63.63,0,0,0,.42.14.47.47,0,0,0,.44-.19,1.2,1.2,0,0,0,.13-.39H77.9a2,2,0,0,1-.11.69,1.53,1.53,0,0,1-.35.54,1.55,1.55,0,0,1-.55.38,2,2,0,0,1-1.63-.09,1.57,1.57,0,0,1-.59-.61,1.39,1.39,0,0,1-.17-.52,4.29,4.29,0,0,1,0-.65V49.23a4.29,4.29,0,0,1,0-.65,1.39,1.39,0,0,1,.17-.52,1.57,1.57,0,0,1,.59-.61,1.79,1.79,0,0,1,.92-.22,1.88,1.88,0,0,1,.72.13,1.43,1.43,0,0,1,.54.38,1.74,1.74,0,0,1,.35.59,2.21,2.21,0,0,1,.11.74H76.75a.7.7,0,0,0-.16-.52.53.53,0,0,0-.41-.16.55.55,0,0,0-.42.16.72.72,0,0,0-.15.49Z"/><path class="cls-1" d="M78.48,49.23a4.29,4.29,0,0,1,0-.65,1.59,1.59,0,0,1,.17-.52,1.64,1.64,0,0,1,.59-.61,1.82,1.82,0,0,1,.92-.22,1.79,1.79,0,0,1,.92.22,1.57,1.57,0,0,1,.59.61,1.39,1.39,0,0,1,.17.52,4.29,4.29,0,0,1,0,.65v1.89a4.29,4.29,0,0,1,0,.65,1.39,1.39,0,0,1-.17.52,1.57,1.57,0,0,1-.59.61,1.79,1.79,0,0,1-.92.22,1.82,1.82,0,0,1-.92-.22,1.64,1.64,0,0,1-.59-.61,1.59,1.59,0,0,1-.17-.52,4.29,4.29,0,0,1,0-.65Zm1.16,2.08a.66.66,0,0,0,.16.49.53.53,0,0,0,.41.16.55.55,0,0,0,.42-.16.7.7,0,0,0,.15-.49V49a.72.72,0,0,0-.15-.49.55.55,0,0,0-.42-.16.53.53,0,0,0-.41.16.67.67,0,0,0-.16.49Z"/><path class="cls-1" d="M82.79,47.29H84v.56h0a1.71,1.71,0,0,1,.44-.45,1.18,1.18,0,0,1,.65-.17,1.25,1.25,0,0,1,.43.07,1,1,0,0,1,.39.24,1.37,1.37,0,0,1,.27.44,1.83,1.83,0,0,1,.1.66v4.41H85.1v-4a.76.76,0,0,0-.15-.5.52.52,0,0,0-.42-.18.5.5,0,0,0-.46.2,1.18,1.18,0,0,0-.12.59v3.87H82.79Z"/><path class="cls-1" d="M87.21,45.55h1.16v1.74h.71v.91h-.71v3.2a.86.86,0,0,0,0,.31.28.28,0,0,0,.12.17.38.38,0,0,0,.22.07h.33v1.09h-.47a1.64,1.64,0,0,1-.67-.12,1.07,1.07,0,0,1-.42-.32,1.18,1.18,0,0,1-.24-.44,1.58,1.58,0,0,1-.07-.47V48.2h-.58v-.91h.58Z"/><path class="cls-1" d="M89.53,47.29h1.15v.62a3.66,3.66,0,0,1,.7-.5,1.77,1.77,0,0,1,.84-.18v1.22a1.07,1.07,0,0,0-.35-.06,1.49,1.49,0,0,0-.4.06,1,1,0,0,0-.38.21,1.1,1.1,0,0,0-.29.38,1.34,1.34,0,0,0-.12.6v3.41H89.53Z"/><path class="cls-1" d="M94.88,52.46h0a1.83,1.83,0,0,1-.46.49,1,1,0,0,1-.65.17,1.52,1.52,0,0,1-.42-.06,1,1,0,0,1-.4-.23,1.13,1.13,0,0,1-.31-.46,2.13,2.13,0,0,1-.12-.78,4.34,4.34,0,0,1,.08-.86,1.34,1.34,0,0,1,.29-.61,1.23,1.23,0,0,1,.56-.37,2.91,2.91,0,0,1,.9-.11h.25l.31,0v-.6a.91.91,0,0,0-.13-.49.48.48,0,0,0-.45-.19.73.73,0,0,0-.42.14.76.76,0,0,0-.24.43H92.51A1.89,1.89,0,0,1,93,47.72a1.42,1.42,0,0,1,.54-.36,1.81,1.81,0,0,1,.72-.13,1.9,1.9,0,0,1,.68.11,1.51,1.51,0,0,1,.92.91A2.15,2.15,0,0,1,96,49v4H94.88Zm0-1.88-.32,0a1.1,1.1,0,0,0-.64.18.71.71,0,0,0-.27.64.85.85,0,0,0,.16.54.53.53,0,0,0,.44.2.56.56,0,0,0,.46-.19.82.82,0,0,0,.17-.55Z"/><path class="cls-1" d="M96.89,45.55h1.16v1.74h.71v.91h-.71v3.2a.86.86,0,0,0,0,.31.25.25,0,0,0,.12.17.38.38,0,0,0,.22.07h.33v1.09h-.48a1.62,1.62,0,0,1-.66-.12,1.18,1.18,0,0,1-.43-.32,1.32,1.32,0,0,1-.23-.44,1.58,1.58,0,0,1-.07-.47V48.2h-.58v-.91h.58Z"/><path class="cls-1" d="M103.51,52.46h0A2,2,0,0,1,103,53a1.08,1.08,0,0,1-.66.17,1.64,1.64,0,0,1-.42-.06,1.09,1.09,0,0,1-.4-.23,1.24,1.24,0,0,1-.31-.46,2.13,2.13,0,0,1-.12-.78,4.34,4.34,0,0,1,.08-.86,1.44,1.44,0,0,1,.29-.61,1.21,1.21,0,0,1,.57-.37,2.8,2.8,0,0,1,.89-.11h.25l.31,0v-.6a.83.83,0,0,0-.13-.49.48.48,0,0,0-.45-.19.68.68,0,0,0-.41.14.72.72,0,0,0-.25.43h-1.12a1.88,1.88,0,0,1,.52-1.24,1.39,1.39,0,0,1,.55-.36,1.8,1.8,0,0,1,.71-.13,1.9,1.9,0,0,1,.68.11,1.55,1.55,0,0,1,.55.34,1.52,1.52,0,0,1,.37.57,2.14,2.14,0,0,1,.14.79v4h-1.16Zm0-1.88a2.31,2.31,0,0,0-.32,0,1.12,1.12,0,0,0-.64.18.71.71,0,0,0-.27.64.91.91,0,0,0,.16.54.56.56,0,0,0,.45.2.58.58,0,0,0,.46-.19.82.82,0,0,0,.16-.55Z"/><path class="cls-1" d="M107.55,53.05h-1L105,47.29h1.23L107,51h0l.78-3.69h1.22Z"/><path class="cls-1" d="M110.58,50.61v.79a.57.57,0,0,0,.15.42.6.6,0,0,0,.41.14.46.46,0,0,0,.44-.19,1,1,0,0,0,.13-.39h1.16a2,2,0,0,1-.12.69,1.4,1.4,0,0,1-.35.54,1.6,1.6,0,0,1-.54.38,2,2,0,0,1-1.64-.09,1.72,1.72,0,0,1-.59-.61,1.59,1.59,0,0,1-.17-.52,4.36,4.36,0,0,1,0-.65V49.23a4.36,4.36,0,0,1,0-.65,1.59,1.59,0,0,1,.17-.52,1.72,1.72,0,0,1,.59-.61,2,2,0,0,1,1.64-.09,1.55,1.55,0,0,1,.55.38,1.77,1.77,0,0,1,.34.58,2,2,0,0,1,.12.7v1.59Zm0-.91h1.13V49a.72.72,0,0,0-.15-.49.54.54,0,0,0-.42-.16.53.53,0,0,0-.41.16.72.72,0,0,0-.15.49Z"/><path class="cls-1" d="M115,51.4a.57.57,0,0,0,.15.42.61.61,0,0,0,.42.14.44.44,0,0,0,.43-.19,1,1,0,0,0,.14-.39h1.15a2,2,0,0,1-.12.69,1.38,1.38,0,0,1-.34.54,1.64,1.64,0,0,1-.55.38,1.8,1.8,0,0,1-.71.13,1.77,1.77,0,0,1-.92-.22,1.57,1.57,0,0,1-.59-.61,1.39,1.39,0,0,1-.17-.52,4.29,4.29,0,0,1,0-.65V49.23a4.29,4.29,0,0,1,0-.65,1.39,1.39,0,0,1,.17-.52,1.57,1.57,0,0,1,.59-.61,1.77,1.77,0,0,1,.92-.22,1.88,1.88,0,0,1,.72.13,1.51,1.51,0,0,1,.54.38,1.58,1.58,0,0,1,.34.59,2.21,2.21,0,0,1,.12.74h-1.15a.75.75,0,0,0-.16-.52.53.53,0,0,0-.41-.16.54.54,0,0,0-.42.16A.72.72,0,0,0,115,49Z"/><path class="cls-1" d="M120,45h1.16v6.46a.64.64,0,0,0,.12.45.74.74,0,0,0,.45.15v1.09a3.88,3.88,0,0,1-.72-.06,1.2,1.2,0,0,1-.55-.24,1.11,1.11,0,0,1-.34-.49,2.37,2.37,0,0,1-.12-.82Z"/><path class="cls-1" d="M122.15,45h1.16v1.15l-1.16.85Z"/><path class="cls-1" d="M124.33,45h3.46v1.09h-2.3v2.37h2v1.09h-2V51.9h2.3v1.15h-3.46Zm2-2h1.22L126,44.6h-.75Z"/><path class="cls-1" d="M128.47,45.55h1.16v1.74h.71v.91h-.71v3.2a.86.86,0,0,0,0,.31.25.25,0,0,0,.12.17A.38.38,0,0,0,130,52h.33v1.09h-.48a1.62,1.62,0,0,1-.66-.12,1.18,1.18,0,0,1-.43-.32,1.32,1.32,0,0,1-.23-.44,1.58,1.58,0,0,1-.07-.47V48.2h-.58v-.91h.58Z"/><path class="cls-1" d="M133,52.46h0a1.83,1.83,0,0,1-.46.49,1,1,0,0,1-.65.17,1.52,1.52,0,0,1-.42-.06,1,1,0,0,1-.4-.23,1.13,1.13,0,0,1-.31-.46,2.13,2.13,0,0,1-.12-.78,4.34,4.34,0,0,1,.08-.86,1.34,1.34,0,0,1,.29-.61,1.23,1.23,0,0,1,.56-.37,2.91,2.91,0,0,1,.9-.11h.25l.31,0v-.6a.83.83,0,0,0-.13-.49.48.48,0,0,0-.45-.19.73.73,0,0,0-.42.14.76.76,0,0,0-.24.43h-1.13a1.89,1.89,0,0,1,.53-1.24,1.42,1.42,0,0,1,.54-.36,1.81,1.81,0,0,1,.72-.13,1.9,1.9,0,0,1,.68.11,1.64,1.64,0,0,1,.55.34,1.52,1.52,0,0,1,.37.57,2.14,2.14,0,0,1,.14.79v4H133Zm0-1.88-.32,0a1.1,1.1,0,0,0-.64.18.71.71,0,0,0-.27.64.85.85,0,0,0,.16.54.53.53,0,0,0,.44.2.56.56,0,0,0,.46-.19.82.82,0,0,0,.17-.55Z"/><path class="cls-1" d="M135,45.55h1.16v1.74h.71v.91h-.71v3.2a.86.86,0,0,0,0,.31.25.25,0,0,0,.12.17.38.38,0,0,0,.22.07h.33v1.09h-.48a1.62,1.62,0,0,1-.66-.12,1.18,1.18,0,0,1-.43-.32,1.32,1.32,0,0,1-.23-.44,1.58,1.58,0,0,1-.07-.47V48.2h-.58v-.91H135Z"/><path class="cls-1" d="M4.23,64.88a1.79,1.79,0,0,1-.15.72,1.69,1.69,0,0,1-.39.59,1.85,1.85,0,0,1-.58.41,1.8,1.8,0,0,1-.72.16,2.57,2.57,0,0,1-.67-.09,1.6,1.6,0,0,1-.62-.32,1.67,1.67,0,0,1-.45-.58,2.22,2.22,0,0,1-.17-.92V60.4a2,2,0,0,1,.13-.74A1.6,1.6,0,0,1,1,59.07a1.8,1.8,0,0,1,.6-.4,2.06,2.06,0,0,1,.76-.14,2,2,0,0,1,.74.14,1.78,1.78,0,0,1,1,1,2,2,0,0,1,.15.78v.46H3.07v-.39a.94.94,0,0,0-.2-.59.6.6,0,0,0-.52-.25.57.57,0,0,0-.57.27,1.36,1.36,0,0,0-.14.67v4.14a1.1,1.1,0,0,0,.15.59.6.6,0,0,0,.55.24,1,1,0,0,0,.24,0,.7.7,0,0,0,.24-.13A.67.67,0,0,0,3,65.18a1.15,1.15,0,0,0,.07-.4v-.4H4.23Z"/><path class="cls-1" d="M6.16,64.25V65a.52.52,0,0,0,.57.57.47.47,0,0,0,.43-.19A1,1,0,0,0,7.29,65H8.45a1.91,1.91,0,0,1-.12.68,1.5,1.5,0,0,1-.34.54,1.75,1.75,0,0,1-.55.38,1.8,1.8,0,0,1-.71.14,1.77,1.77,0,0,1-.92-.23,1.57,1.57,0,0,1-.6-.6A1.67,1.67,0,0,1,5,65.41a4.45,4.45,0,0,1,0-.65v-1.9a4.45,4.45,0,0,1,0-.65,1.67,1.67,0,0,1,.17-.52,1.57,1.57,0,0,1,.6-.6,1.77,1.77,0,0,1,.92-.23,1.89,1.89,0,0,1,.72.14,1.47,1.47,0,0,1,.54.38,1.63,1.63,0,0,1,.34.57,2.08,2.08,0,0,1,.12.71v1.59Zm0-.91H7.29v-.66a.73.73,0,0,0-.15-.5A.53.53,0,0,0,6.73,62a.54.54,0,0,0-.42.16.73.73,0,0,0-.15.5Z"/><path class="cls-1" d="M9.3,60.93h1.16v.56h0a1.43,1.43,0,0,1,.43-.45,1.12,1.12,0,0,1,.66-.18,1.68,1.68,0,0,1,.43.07,1,1,0,0,1,.38.25,1.15,1.15,0,0,1,.28.44,2,2,0,0,1,.1.65v4.42H11.61v-4a.76.76,0,0,0-.15-.5A.52.52,0,0,0,11,62a.49.49,0,0,0-.45.2,1.1,1.1,0,0,0-.13.59v3.88H9.3Z"/><path class="cls-1" d="M13.72,59.18h1.16v1.75h.72v.91h-.72V65a.92.92,0,0,0,0,.32.37.37,0,0,0,.13.17.44.44,0,0,0,.22.07h.33v1.09h-.48a1.44,1.44,0,0,1-.66-.13,1.18,1.18,0,0,1-.43-.32,1.12,1.12,0,0,1-.23-.43,1.6,1.6,0,0,1-.08-.47v-3.5h-.58v-.91h.58Z"/><path class="cls-1" d="M16,60.93H17.2v.61a3.33,3.33,0,0,1,.69-.5,1.8,1.8,0,0,1,.84-.18v1.23a.84.84,0,0,0-.35-.07,1.43,1.43,0,0,0-.39.06,1.06,1.06,0,0,0-.39.21,1.17,1.17,0,0,0-.29.39,1.44,1.44,0,0,0-.11.59v3.42H16Z"/><path class="cls-1" d="M20.26,64.25V65a.57.57,0,0,0,.15.42.56.56,0,0,0,.41.15.48.48,0,0,0,.44-.19,1,1,0,0,0,.13-.39h1.16a1.91,1.91,0,0,1-.12.68,1.4,1.4,0,0,1-.35.54,1.6,1.6,0,0,1-.54.38,1.94,1.94,0,0,1-1.64-.09,1.62,1.62,0,0,1-.59-.6,1.67,1.67,0,0,1-.17-.52,4.45,4.45,0,0,1,0-.65v-1.9a4.45,4.45,0,0,1,0-.65,1.67,1.67,0,0,1,.17-.52,1.62,1.62,0,0,1,.59-.6A1.94,1.94,0,0,1,21.54,61a1.43,1.43,0,0,1,.55.38,1.63,1.63,0,0,1,.34.57,2.08,2.08,0,0,1,.12.71v1.59Zm0-.91h1.13v-.66a.73.73,0,0,0-.15-.5.54.54,0,0,0-.42-.16.53.53,0,0,0-.41.16.73.73,0,0,0-.15.5Z"/><path class="cls-1" d="M25.5,62.54a.58.58,0,0,0-.18-.44.63.63,0,0,0-.41-.15.52.52,0,0,0-.42.18.59.59,0,0,0-.15.4.68.68,0,0,0,.08.31.72.72,0,0,0,.41.28l.68.27a1.69,1.69,0,0,1,.9.69,1.88,1.88,0,0,1,.24.94,1.63,1.63,0,0,1-.13.67,1.75,1.75,0,0,1-.36.55,1.6,1.6,0,0,1-.54.38,1.82,1.82,0,0,1-.7.14,1.73,1.73,0,0,1-.64-.12,1.36,1.36,0,0,1-.54-.33,1.43,1.43,0,0,1-.38-.54A1.73,1.73,0,0,1,23.2,65h1.09a1.11,1.11,0,0,0,.16.44.5.5,0,0,0,.46.21.68.68,0,0,0,.45-.17.57.57,0,0,0,.2-.46.71.71,0,0,0-.12-.41,1,1,0,0,0-.46-.29l-.56-.21a1.8,1.8,0,0,1-.85-.61,1.52,1.52,0,0,1-.32-1,1.64,1.64,0,0,1,.14-.67,1.58,1.58,0,0,1,.37-.54A1.5,1.5,0,0,1,24.3,61a1.72,1.72,0,0,1,1.31,0,1.9,1.9,0,0,1,.52.35,1.66,1.66,0,0,1,.34.54,1.84,1.84,0,0,1,.12.66Z"/><path class="cls-1" d="M31.82,66.17l-.22.23-.22.19a1.26,1.26,0,0,1-.29.12,1.32,1.32,0,0,1-.37.05,1,1,0,0,1-1-.55,1.51,1.51,0,0,1-.15-.48,5,5,0,0,1,0-.76V62.78a6.93,6.93,0,0,1,0-.92,1.19,1.19,0,0,1,.14-.48,1.26,1.26,0,0,1,.39-.37,1.18,1.18,0,0,1,.65-.15,1.23,1.23,0,0,1,.61.15,1.59,1.59,0,0,1,.46.44h0V58.6H33v8.09H31.82Zm-1.15-1.36a1,1,0,0,0,.14.57.46.46,0,0,0,.43.22.53.53,0,0,0,.42-.2.79.79,0,0,0,.16-.52V62.64a.6.6,0,0,0-.17-.44.52.52,0,0,0-.41-.18.49.49,0,0,0-.45.2,1,1,0,0,0-.12.48Z"/><path class="cls-1" d="M35,64.25V65a.52.52,0,0,0,.57.57.46.46,0,0,0,.43-.19.86.86,0,0,0,.13-.39h1.16a1.91,1.91,0,0,1-.12.68,1.5,1.5,0,0,1-.34.54,1.64,1.64,0,0,1-.55.38,1.8,1.8,0,0,1-.71.14,1.77,1.77,0,0,1-.92-.23,1.48,1.48,0,0,1-.59-.6,1.45,1.45,0,0,1-.17-.52,3.36,3.36,0,0,1-.05-.65v-1.9a3.36,3.36,0,0,1,.05-.65,1.45,1.45,0,0,1,.17-.52,1.48,1.48,0,0,1,.59-.6,1.77,1.77,0,0,1,.92-.23,1.89,1.89,0,0,1,.72.14,1.39,1.39,0,0,1,.54.38,1.63,1.63,0,0,1,.34.57,2.08,2.08,0,0,1,.12.71v1.59Zm0-.91h1.13v-.66a.73.73,0,0,0-.15-.5.53.53,0,0,0-.41-.16.54.54,0,0,0-.42.16.73.73,0,0,0-.15.5Z"/><path class="cls-1" d="M40.32,58.6h3.45v1.09h-2.3v2.45h2v1.1h-2v3.45H40.32Z"/><path class="cls-1" d="M44.35,62.86a4.45,4.45,0,0,1,0-.65,1.67,1.67,0,0,1,.17-.52,1.57,1.57,0,0,1,.6-.6,1.77,1.77,0,0,1,.92-.23,1.82,1.82,0,0,1,.92.23,1.62,1.62,0,0,1,.59.6,1.67,1.67,0,0,1,.17.52,4.45,4.45,0,0,1,0,.65v1.9a4.45,4.45,0,0,1,0,.65,1.67,1.67,0,0,1-.17.52,1.62,1.62,0,0,1-.59.6,1.82,1.82,0,0,1-.92.23,1.77,1.77,0,0,1-.92-.23,1.57,1.57,0,0,1-.6-.6,1.67,1.67,0,0,1-.17-.52,4.45,4.45,0,0,1,0-.65Zm1.16,2.08a.7.7,0,0,0,.15.49.54.54,0,0,0,.42.17.53.53,0,0,0,.41-.17.7.7,0,0,0,.15-.49V62.68a.73.73,0,0,0-.15-.5.53.53,0,0,0-.41-.16.54.54,0,0,0-.42.16.73.73,0,0,0-.15.5Z"/><path class="cls-1" d="M48.65,60.93h1.16v.61a3.66,3.66,0,0,1,.7-.5,1.74,1.74,0,0,1,.84-.18v1.23A.89.89,0,0,0,51,62a1.43,1.43,0,0,0-.39.06,1,1,0,0,0-.38.21,1.05,1.05,0,0,0-.29.39,1.29,1.29,0,0,0-.12.59v3.42H48.65Z"/><path class="cls-1" d="M51.81,60.93H53v.56h0a1.46,1.46,0,0,1,.44-.45,1.11,1.11,0,0,1,.65-.18,1.07,1.07,0,0,1,.63.18,2,2,0,0,1,.41.4,2.27,2.27,0,0,1,.47-.41,1.38,1.38,0,0,1,.73-.17,1.83,1.83,0,0,1,.45.07,1.12,1.12,0,0,1,.4.25,1.18,1.18,0,0,1,.3.44,1.55,1.55,0,0,1,.11.65v4.42H56.42v-4a.76.76,0,0,0-.14-.5.6.6,0,0,0-.88,0,1.21,1.21,0,0,0-.12.59v3.88H54.12v-4a.76.76,0,0,0-.15-.5.52.52,0,0,0-.42-.18.49.49,0,0,0-.45.2,1.1,1.1,0,0,0-.13.59v3.88H51.81Z"/><path class="cls-1" d="M60.73,66.1h0a2.44,2.44,0,0,1-.46.49,1.15,1.15,0,0,1-.66.17,1.32,1.32,0,0,1-.42-.07,1.06,1.06,0,0,1-.4-.22,1.28,1.28,0,0,1-.31-.47,2.13,2.13,0,0,1-.12-.78,4.23,4.23,0,0,1,.08-.85,1.43,1.43,0,0,1,.29-.62,1.27,1.27,0,0,1,.57-.36,2.77,2.77,0,0,1,.89-.12h.25l.31,0v-.6a.83.83,0,0,0-.13-.49.48.48,0,0,0-.45-.19.63.63,0,0,0-.41.15.69.69,0,0,0-.25.43H58.37a1.86,1.86,0,0,1,.52-1.25,1.7,1.7,0,0,1,.54-.36,1.88,1.88,0,0,1,.72-.13,2.15,2.15,0,0,1,.68.11,1.44,1.44,0,0,1,.55.35,1.57,1.57,0,0,1,.37.56,2.2,2.2,0,0,1,.14.8v4H60.73Zm0-1.89-.32,0a1.2,1.2,0,0,0-.64.17.73.73,0,0,0-.27.65.88.88,0,0,0,.16.53.53.53,0,0,0,.45.2.58.58,0,0,0,.46-.19.87.87,0,0,0,.16-.54Z"/><path class="cls-1" d="M62.74,59.18H63.9v1.75h.71v.91H63.9V65a.92.92,0,0,0,0,.32.43.43,0,0,0,.12.17.48.48,0,0,0,.23.07h.32v1.09h-.47a1.48,1.48,0,0,1-.67-.13,1.25,1.25,0,0,1-.66-.75,1.58,1.58,0,0,1-.07-.47v-3.5h-.58v-.91h.58Z"/><path class="cls-1" d="M65.06,58.6h1.16v1.16H65.06Zm0,2.33h1.16v5.76H65.06Z"/><path class="cls-1" d="M67.07,62.86a4.45,4.45,0,0,1,0-.65,1.67,1.67,0,0,1,.17-.52,1.57,1.57,0,0,1,.6-.6,1.77,1.77,0,0,1,.92-.23,1.82,1.82,0,0,1,.92.23,1.62,1.62,0,0,1,.59.6,1.67,1.67,0,0,1,.17.52,4.45,4.45,0,0,1,0,.65v1.9a4.45,4.45,0,0,1,0,.65,1.67,1.67,0,0,1-.17.52,1.62,1.62,0,0,1-.59.6,1.82,1.82,0,0,1-.92.23,1.77,1.77,0,0,1-.92-.23,1.57,1.57,0,0,1-.6-.6,1.67,1.67,0,0,1-.17-.52,4.45,4.45,0,0,1,0-.65Zm1.16,2.08a.7.7,0,0,0,.15.49.54.54,0,0,0,.42.17.53.53,0,0,0,.41-.17.7.7,0,0,0,.15-.49V62.68a.73.73,0,0,0-.15-.5A.53.53,0,0,0,68.8,62a.54.54,0,0,0-.42.16.73.73,0,0,0-.15.5Z"/><path class="cls-1" d="M71.37,60.93h1.16v.56h0A1.43,1.43,0,0,1,73,61a1.12,1.12,0,0,1,.66-.18,1.68,1.68,0,0,1,.43.07,1,1,0,0,1,.38.25,1.15,1.15,0,0,1,.28.44,2,2,0,0,1,.1.65v4.42H73.68v-4a.76.76,0,0,0-.15-.5.52.52,0,0,0-.42-.18.49.49,0,0,0-.45.2,1.1,1.1,0,0,0-.13.59v3.88H71.37Z"/><path class="cls-1" d="M80.21,66.17,80,66.4a2.11,2.11,0,0,1-.23.19,1.1,1.1,0,0,1-.29.12,1.32,1.32,0,0,1-.37.05,1,1,0,0,1-1-.55,1.51,1.51,0,0,1-.15-.48,5.17,5.17,0,0,1,0-.76V62.78c0-.42,0-.72,0-.92a1,1,0,0,1,.15-.48,1.22,1.22,0,0,1,.38-.37,1.18,1.18,0,0,1,.65-.15,1.23,1.23,0,0,1,.61.15,1.48,1.48,0,0,1,.46.44h0V58.6h1.16v8.09H80.21Zm-1.15-1.36a1,1,0,0,0,.14.57.47.47,0,0,0,.43.22.5.5,0,0,0,.42-.2.79.79,0,0,0,.16-.52V62.64a.6.6,0,0,0-.16-.44.54.54,0,0,0-.42-.18.49.49,0,0,0-.45.2,1,1,0,0,0-.12.48Z"/><path class="cls-1" d="M82.32,58.6h1.16v1.16l-1.16.84Z"/><path class="cls-1" d="M84.51,58.6H88v1.09h-2.3v2.38h2v1.09h-2v2.37H88v1.16H84.51Z"/><path class="cls-1" d="M88.64,60.93H89.8v.56h0a1.46,1.46,0,0,1,.44-.45,1.11,1.11,0,0,1,.65-.18,1.55,1.55,0,0,1,.43.07,1,1,0,0,1,.39.25,1.27,1.27,0,0,1,.27.44,1.73,1.73,0,0,1,.11.65v4.42H91v-4a.76.76,0,0,0-.15-.5.6.6,0,0,0-.88,0,1.21,1.21,0,0,0-.12.59v3.88H88.64Z"/><path class="cls-1" d="M95.16,62.54a.58.58,0,0,0-.59-.59.52.52,0,0,0-.42.18.59.59,0,0,0-.15.4.58.58,0,0,0,.49.59l.68.27a1.66,1.66,0,0,1,.89.69,1.79,1.79,0,0,1,.25.94,1.82,1.82,0,0,1-.13.67,1.75,1.75,0,0,1-.36.55,1.55,1.55,0,0,1-.55.38,1.74,1.74,0,0,1-.69.14,1.78,1.78,0,0,1-.65-.12,1.51,1.51,0,0,1-.54-.33,1.69,1.69,0,0,1-.38-.54,2.08,2.08,0,0,1-.16-.75H94a1,1,0,0,0,.16.44.5.5,0,0,0,.46.21A.68.68,0,0,0,95,65.5a.57.57,0,0,0,.2-.46.65.65,0,0,0-.13-.41,1,1,0,0,0-.45-.29l-.56-.21a1.88,1.88,0,0,1-.86-.61,1.57,1.57,0,0,1-.31-1,1.64,1.64,0,0,1,.14-.67,1.58,1.58,0,0,1,.37-.54A1.5,1.5,0,0,1,94,61a1.72,1.72,0,0,1,1.31,0,1.9,1.9,0,0,1,.52.35,1.72,1.72,0,0,1,.46,1.2Z"/><path class="cls-1" d="M98.11,64.25V65a.57.57,0,0,0,.16.42.56.56,0,0,0,.41.15.48.48,0,0,0,.44-.19,1,1,0,0,0,.13-.39h1.16a1.91,1.91,0,0,1-.12.68,1.53,1.53,0,0,1-.35.54,1.6,1.6,0,0,1-.54.38,1.94,1.94,0,0,1-1.64-.09,1.55,1.55,0,0,1-.59-.6,1.67,1.67,0,0,1-.17-.52,4.45,4.45,0,0,1,0-.65v-1.9a4.45,4.45,0,0,1,0-.65,1.67,1.67,0,0,1,.17-.52,1.55,1.55,0,0,1,.59-.6A1.94,1.94,0,0,1,99.4,61a1.43,1.43,0,0,1,.55.38,1.63,1.63,0,0,1,.34.57,2.08,2.08,0,0,1,.12.71v1.59Zm0-.91h1.14v-.66a.73.73,0,0,0-.15-.5.55.55,0,0,0-.42-.16.53.53,0,0,0-.41.16.73.73,0,0,0-.16.5Z"/><path class="cls-1" d="M101.26,58.6h1.16v1.16h-1.16Zm0,2.33h1.16v5.76h-1.16Z"/><path class="cls-1" d="M104.53,67.36a.62.62,0,0,0,.17.38.53.53,0,0,0,.45.19.44.44,0,0,0,.4-.18.73.73,0,0,0,.13-.45V66.17h0a1.44,1.44,0,0,1-.46.43,1.27,1.27,0,0,1-.62.16,1,1,0,0,1-1-.55,1.51,1.51,0,0,1-.15-.48,5,5,0,0,1,0-.76V62.78a6.93,6.93,0,0,1,0-.92,1,1,0,0,1,.15-.48,1.12,1.12,0,0,1,.38-.37,1.18,1.18,0,0,1,.65-.15,1.32,1.32,0,0,1,.37,0,1.39,1.39,0,0,1,.28.12,1,1,0,0,1,.22.19l.22.23v-.52h1.16v6.46a1.8,1.8,0,0,1-.1.6,1.46,1.46,0,0,1-.31.54,1.51,1.51,0,0,1-.55.4,1.87,1.87,0,0,1-.78.15,1.73,1.73,0,0,1-.54-.08,1.55,1.55,0,0,1-1-.81,2.32,2.32,0,0,1-.24-.83Zm0-2.44a.89.89,0,0,0,.12.47.47.47,0,0,0,.45.21.54.54,0,0,0,.42-.18.67.67,0,0,0,.16-.45V62.74a.77.77,0,0,0-.16-.52.53.53,0,0,0-.42-.2.46.46,0,0,0-.43.22,1,1,0,0,0-.14.56Z"/><path class="cls-1" d="M107.79,60.93H109v.56h0a1.58,1.58,0,0,1,.44-.45,1.11,1.11,0,0,1,.65-.18,1.68,1.68,0,0,1,.44.07,1,1,0,0,1,.38.25,1.15,1.15,0,0,1,.28.44,2,2,0,0,1,.1.65v4.42H110.1v-4a.76.76,0,0,0-.15-.5.52.52,0,0,0-.42-.18.49.49,0,0,0-.45.2,1.1,1.1,0,0,0-.13.59v3.88h-1.16Z"/><path class="cls-1" d="M113.27,64.25V65a.52.52,0,0,0,.57.57.46.46,0,0,0,.43-.19.86.86,0,0,0,.13-.39h1.16a1.91,1.91,0,0,1-.12.68,1.5,1.5,0,0,1-.34.54,1.64,1.64,0,0,1-.55.38,1.8,1.8,0,0,1-.71.14,1.77,1.77,0,0,1-.92-.23,1.48,1.48,0,0,1-.59-.6,1.68,1.68,0,0,1-.18-.52,4.45,4.45,0,0,1,0-.65v-1.9a4.45,4.45,0,0,1,0-.65,1.68,1.68,0,0,1,.18-.52,1.48,1.48,0,0,1,.59-.6,1.77,1.77,0,0,1,.92-.23,1.89,1.89,0,0,1,.72.14,1.39,1.39,0,0,1,.54.38,1.63,1.63,0,0,1,.34.57,2.08,2.08,0,0,1,.12.71v1.59Zm0-.91h1.13v-.66a.73.73,0,0,0-.15-.5.53.53,0,0,0-.41-.16.54.54,0,0,0-.42.16.73.73,0,0,0-.15.5Z"/><path class="cls-1" d="M116.41,60.93h1.16v.56h0A1.43,1.43,0,0,1,118,61a1.12,1.12,0,0,1,.66-.18,1,1,0,0,1,.62.18,2,2,0,0,1,.41.4,2.09,2.09,0,0,1,.48-.41,1.32,1.32,0,0,1,.72-.17,1.76,1.76,0,0,1,.45.07,1.15,1.15,0,0,1,.7.69,1.54,1.54,0,0,1,.12.65v4.42H121v-4a.76.76,0,0,0-.15-.5.6.6,0,0,0-.88,0,1.21,1.21,0,0,0-.12.59v3.88h-1.16v-4a.76.76,0,0,0-.15-.5.52.52,0,0,0-.42-.18.49.49,0,0,0-.45.2,1.1,1.1,0,0,0-.13.59v3.88h-1.16Z"/><path class="cls-1" d="M124.2,64.25V65a.57.57,0,0,0,.15.42.56.56,0,0,0,.41.15.48.48,0,0,0,.44-.19,1,1,0,0,0,.13-.39h1.16a1.91,1.91,0,0,1-.12.68,1.5,1.5,0,0,1-.34.54,1.75,1.75,0,0,1-.55.38,1.94,1.94,0,0,1-1.64-.09,1.62,1.62,0,0,1-.59-.6,1.67,1.67,0,0,1-.17-.52,4.45,4.45,0,0,1,0-.65v-1.9a4.45,4.45,0,0,1,0-.65,1.67,1.67,0,0,1,.17-.52,1.62,1.62,0,0,1,.59-.6,1.82,1.82,0,0,1,.92-.23,1.9,1.9,0,0,1,.73.14,1.47,1.47,0,0,1,.54.38,1.63,1.63,0,0,1,.34.57,2.08,2.08,0,0,1,.12.71v1.59Zm0-.91h1.13v-.66a.73.73,0,0,0-.15-.5.54.54,0,0,0-.42-.16.53.53,0,0,0-.41.16.73.73,0,0,0-.15.5Z"/><path class="cls-1" d="M127.34,60.93h1.16v.56h0A1.58,1.58,0,0,1,129,61a1.11,1.11,0,0,1,.65-.18,1.68,1.68,0,0,1,.44.07,1,1,0,0,1,.38.25,1.15,1.15,0,0,1,.28.44,2,2,0,0,1,.1.65v4.42h-1.16v-4a.76.76,0,0,0-.15-.5.52.52,0,0,0-.42-.18.49.49,0,0,0-.45.2,1.1,1.1,0,0,0-.13.59v3.88h-1.16Z"/><path class="cls-1" d="M131.76,59.18h1.16v1.75h.72v.91h-.72V65a.92.92,0,0,0,0,.32.37.37,0,0,0,.13.17.44.44,0,0,0,.22.07h.33v1.09h-.48a1.48,1.48,0,0,1-.67-.13,1.14,1.14,0,0,1-.42-.32,1,1,0,0,1-.23-.43,1.6,1.6,0,0,1-.08-.47v-3.5h-.58v-.91h.58Z"/><path class="cls-1" d="M140,60.93h-1.16v-.26a1.19,1.19,0,0,0-.19-.69.69.69,0,0,0-.63-.29.69.69,0,0,0-.63.32,1.61,1.61,0,0,0-.12.33,2.6,2.6,0,0,0,0,.4,2.42,2.42,0,0,0,0,.4.77.77,0,0,0,.08.28.66.66,0,0,0,.2.21,2.85,2.85,0,0,0,.36.19l.88.35a2.31,2.31,0,0,1,.63.34,1.51,1.51,0,0,1,.37.47,2.18,2.18,0,0,1,.17.61,6.18,6.18,0,0,1,0,.79,4.69,4.69,0,0,1-.1,1,2,2,0,0,1-.34.75,1.63,1.63,0,0,1-.62.5,2.22,2.22,0,0,1-.94.18,2,2,0,0,1-.78-.15,1.94,1.94,0,0,1-.63-.4,2.11,2.11,0,0,1-.41-.61,1.79,1.79,0,0,1-.16-.76v-.43h1.16v.36a.91.91,0,0,0,.19.57.72.72,0,0,0,.63.26,1,1,0,0,0,.46-.09.53.53,0,0,0,.25-.24,1,1,0,0,0,.11-.38c0-.15,0-.31,0-.5s0-.38,0-.52a.92.92,0,0,0-.1-.33.64.64,0,0,0-.2-.2,2.3,2.3,0,0,0-.35-.17l-.83-.34a1.84,1.84,0,0,1-1-.82,2.64,2.64,0,0,1-.26-1.26,2.78,2.78,0,0,1,.13-.87,2,2,0,0,1,.36-.7,1.82,1.82,0,0,1,.62-.47,2,2,0,0,1,.88-.18,1.86,1.86,0,0,1,.79.16,2.07,2.07,0,0,1,.61.42,1.89,1.89,0,0,1,.39.59,1.66,1.66,0,0,1,.14.66Z"/><path class="cls-1" d="M144.27,66.69h-1.16v-.56h0a1.71,1.71,0,0,1-.44.45,1.11,1.11,0,0,1-.65.18,1.26,1.26,0,0,1-.43-.08,1,1,0,0,1-.39-.24,1.13,1.13,0,0,1-.27-.44,1.76,1.76,0,0,1-.11-.65V60.93H142v4a.78.78,0,0,0,.15.5.52.52,0,0,0,.42.18.5.5,0,0,0,.46-.21,1.16,1.16,0,0,0,.12-.59V60.93h1.16Z"/><path class="cls-1" d="M145.22,60.93h1.16v.52a2.5,2.5,0,0,1,.45-.42,1.09,1.09,0,0,1,.65-.17,1.06,1.06,0,0,1,1,.55,1.64,1.64,0,0,1,.14.47,5.05,5.05,0,0,1,.05.76v2.2a7,7,0,0,1,0,.92,1.19,1.19,0,0,1-.14.47,1.27,1.27,0,0,1-1.65.37,1.44,1.44,0,0,1-.46-.43h0V69h-1.16Zm2.31,1.87a1,1,0,0,0-.14-.56A.46.46,0,0,0,147,62a.53.53,0,0,0-.42.2.83.83,0,0,0-.16.52V65a.63.63,0,0,0,.17.45.52.52,0,0,0,.41.18.47.47,0,0,0,.45-.21.89.89,0,0,0,.12-.47Z"/><path class="cls-1" d="M150.7,64.25V65a.52.52,0,0,0,.57.57.46.46,0,0,0,.43-.19.86.86,0,0,0,.13-.39H153a1.91,1.91,0,0,1-.12.68,1.5,1.5,0,0,1-.34.54,1.64,1.64,0,0,1-.55.38,1.8,1.8,0,0,1-.71.14,1.77,1.77,0,0,1-.92-.23,1.48,1.48,0,0,1-.59-.6,1.45,1.45,0,0,1-.17-.52,4.4,4.4,0,0,1-.05-.65v-1.9a4.4,4.4,0,0,1,.05-.65,1.45,1.45,0,0,1,.17-.52,1.48,1.48,0,0,1,.59-.6,1.77,1.77,0,0,1,.92-.23A1.89,1.89,0,0,1,152,61a1.39,1.39,0,0,1,.54.38,1.63,1.63,0,0,1,.34.57,2.08,2.08,0,0,1,.12.71v1.59Zm.85-5.68h1.23l-1.5,1.6h-.75Zm-.85,4.77h1.13v-.66a.73.73,0,0,0-.15-.5.53.53,0,0,0-.41-.16.54.54,0,0,0-.42.16.73.73,0,0,0-.15.5Z"/><path class="cls-1" d="M153.85,60.93H155v.61a3.66,3.66,0,0,1,.7-.5,1.74,1.74,0,0,1,.84-.18v1.23a.87.87,0,0,0-.35-.07,1.44,1.44,0,0,0-.4.06,1,1,0,0,0-.38.21,1.05,1.05,0,0,0-.29.39,1.29,1.29,0,0,0-.12.59v3.42h-1.15Z"/><path class="cls-1" d="M157,58.6h1.16v1.16H157Zm0,2.33h1.16v5.76H157Z"/><path class="cls-1" d="M160.17,64.25V65a.54.54,0,0,0,.16.42.56.56,0,0,0,.41.15.48.48,0,0,0,.44-.19,1.2,1.2,0,0,0,.13-.39h1.16a1.91,1.91,0,0,1-.12.68,1.53,1.53,0,0,1-.35.54,1.6,1.6,0,0,1-.54.38,1.85,1.85,0,0,1-.72.14,1.79,1.79,0,0,1-.92-.23,1.55,1.55,0,0,1-.59-.6,1.67,1.67,0,0,1-.17-.52,4.4,4.4,0,0,1-.05-.65v-1.9a4.4,4.4,0,0,1,.05-.65,1.67,1.67,0,0,1,.17-.52,1.55,1.55,0,0,1,.59-.6,1.79,1.79,0,0,1,.92-.23,1.81,1.81,0,0,1,.72.14,1.43,1.43,0,0,1,.55.38,1.63,1.63,0,0,1,.34.57,2.08,2.08,0,0,1,.12.71v1.59Zm0-.91h1.14v-.66a.73.73,0,0,0-.15-.5.55.55,0,0,0-.42-.16.53.53,0,0,0-.41.16.68.68,0,0,0-.16.5Z"/><path class="cls-1" d="M166.78,66.69h-1.15v-.56h0a1.68,1.68,0,0,1-.43.45,1.12,1.12,0,0,1-.66.18,1.31,1.31,0,0,1-.43-.08,1.15,1.15,0,0,1-.39-.24,1.27,1.27,0,0,1-.27-.44,1.78,1.78,0,0,1-.1-.65V60.93h1.16v4a.78.78,0,0,0,.15.5.49.49,0,0,0,.42.18.47.47,0,0,0,.45-.21,1.15,1.15,0,0,0,.13-.59V60.93h1.15Z"/><path class="cls-1" d="M167.74,60.93h1.16v.61a3.33,3.33,0,0,1,.69-.5,1.8,1.8,0,0,1,.84-.18v1.23a.84.84,0,0,0-.35-.07,1.43,1.43,0,0,0-.39.06,1.06,1.06,0,0,0-.39.21,1.17,1.17,0,0,0-.29.39,1.44,1.44,0,0,0-.11.59v3.42h-1.16Z"/><path class="cls-1" d="M173,63h3.42v1.16H173Z"/><path class="cls-1" d="M183.29,64.88a2,2,0,0,1-.14.72,1.89,1.89,0,0,1-1,1,1.73,1.73,0,0,1-.72.16,2.63,2.63,0,0,1-.67-.09,1.56,1.56,0,0,1-.61-.32,1.46,1.46,0,0,1-.45-.58,2.07,2.07,0,0,1-.18-.92V60.4a2,2,0,0,1,.14-.74,1.71,1.71,0,0,1,.38-.59,1.91,1.91,0,0,1,.6-.4,2.11,2.11,0,0,1,.77-.14,2,2,0,0,1,.74.14,2,2,0,0,1,.59.4,2.12,2.12,0,0,1,.39.61,2.21,2.21,0,0,1,.14.78v.46h-1.16v-.39a.93.93,0,0,0-.19-.59.61.61,0,0,0-.52-.25.6.6,0,0,0-.58.27,1.48,1.48,0,0,0-.14.67v4.14a1.1,1.1,0,0,0,.15.59.62.62,0,0,0,.55.24,1.18,1.18,0,0,0,.25,0,.7.7,0,0,0,.24-.13.65.65,0,0,0,.17-.25,1,1,0,0,0,.07-.4v-.4h1.16Z"/><path class="cls-1" d="M185.22,64.25V65a.57.57,0,0,0,.15.42.58.58,0,0,0,.42.15.49.49,0,0,0,.44-.19,1.2,1.2,0,0,0,.13-.39h1.16a1.91,1.91,0,0,1-.12.68,1.53,1.53,0,0,1-.35.54,1.55,1.55,0,0,1-.55.38,1.92,1.92,0,0,1-1.63-.09,1.48,1.48,0,0,1-.59-.6,1.45,1.45,0,0,1-.17-.52,4.4,4.4,0,0,1-.05-.65v-1.9a4.4,4.4,0,0,1,.05-.65,1.45,1.45,0,0,1,.17-.52,1.48,1.48,0,0,1,.59-.6,1.79,1.79,0,0,1,.92-.23,1.89,1.89,0,0,1,.72.14,1.43,1.43,0,0,1,.55.38,1.8,1.8,0,0,1,.34.57,2.08,2.08,0,0,1,.12.71v1.59Zm0-.91h1.14v-.66a.68.68,0,0,0-.16-.5.53.53,0,0,0-.41-.16.55.55,0,0,0-.42.16.73.73,0,0,0-.15.5Z"/><path class="cls-1" d="M188.37,60.93h1.16v.56h0A1.46,1.46,0,0,1,190,61a1.09,1.09,0,0,1,.65-.18,1.61,1.61,0,0,1,.43.07,1.08,1.08,0,0,1,.39.25,1.27,1.27,0,0,1,.27.44,1.74,1.74,0,0,1,.1.65v4.42h-1.16v-4a.82.82,0,0,0-.14-.5.6.6,0,0,0-.88,0,1.21,1.21,0,0,0-.12.59v3.88h-1.16Z"/><path class="cls-1" d="M192.79,59.18H194v1.75h.71v.91H194V65a.92.92,0,0,0,0,.32.3.3,0,0,0,.12.17.48.48,0,0,0,.22.07h.33v1.09h-.48a1.47,1.47,0,0,1-.66-.13,1.18,1.18,0,0,1-.43-.32,1.27,1.27,0,0,1-.23-.43,1.58,1.58,0,0,1-.07-.47v-3.5h-.58v-.91h.58Z"/><path class="cls-1" d="M195.1,60.93h1.16v.61a3.66,3.66,0,0,1,.7-.5,1.74,1.74,0,0,1,.84-.18v1.23a.89.89,0,0,0-.36-.07,1.43,1.43,0,0,0-.39.06,1,1,0,0,0-.38.21,1.05,1.05,0,0,0-.29.39,1.29,1.29,0,0,0-.12.59v3.42H195.1Z"/><path class="cls-1" d="M199.32,64.25V65a.52.52,0,0,0,.57.57.46.46,0,0,0,.43-.19.86.86,0,0,0,.13-.39h1.16a1.91,1.91,0,0,1-.12.68,1.5,1.5,0,0,1-.34.54,1.64,1.64,0,0,1-.55.38,1.8,1.8,0,0,1-.71.14,1.77,1.77,0,0,1-.92-.23,1.48,1.48,0,0,1-.59-.6,1.45,1.45,0,0,1-.17-.52,3.36,3.36,0,0,1-.05-.65v-1.9a3.36,3.36,0,0,1,.05-.65,1.45,1.45,0,0,1,.17-.52,1.48,1.48,0,0,1,.59-.6,1.77,1.77,0,0,1,.92-.23,1.89,1.89,0,0,1,.72.14,1.39,1.39,0,0,1,.54.38,1.63,1.63,0,0,1,.34.57,2.08,2.08,0,0,1,.12.71v1.59Zm0-.91h1.13v-.66a.73.73,0,0,0-.15-.5.53.53,0,0,0-.41-.16.54.54,0,0,0-.42.16.73.73,0,0,0-.15.5Z"/><path class="cls-1" d="M206.88,66.17l-.21.23a2.11,2.11,0,0,1-.23.19,1.18,1.18,0,0,1-.28.12,1.4,1.4,0,0,1-.38.05,1,1,0,0,1-1-.55,1.51,1.51,0,0,1-.15-.48,5.17,5.17,0,0,1,0-.76V62.78c0-.42,0-.72,0-.92a1,1,0,0,1,.15-.48,1.34,1.34,0,0,1,.38-.37,1.2,1.2,0,0,1,.65-.15,1.23,1.23,0,0,1,.61.15,1.48,1.48,0,0,1,.46.44h0V58.6H208v8.09h-1.16Zm-1.14-1.36a1,1,0,0,0,.13.57.47.47,0,0,0,.43.22.5.5,0,0,0,.42-.2.79.79,0,0,0,.16-.52V62.64a.6.6,0,0,0-.16-.44.54.54,0,0,0-.42-.18.47.47,0,0,0-.44.2,1,1,0,0,0-.12.48Z"/><path class="cls-1" d="M210.05,64.25V65a.54.54,0,0,0,.16.42.56.56,0,0,0,.41.15.48.48,0,0,0,.44-.19,1.2,1.2,0,0,0,.13-.39h1.16a1.91,1.91,0,0,1-.12.68,1.53,1.53,0,0,1-.35.54,1.6,1.6,0,0,1-.54.38,1.85,1.85,0,0,1-.72.14,1.82,1.82,0,0,1-.92-.23,1.55,1.55,0,0,1-.59-.6,1.67,1.67,0,0,1-.17-.52,4.4,4.4,0,0,1-.05-.65v-1.9a4.4,4.4,0,0,1,.05-.65,1.67,1.67,0,0,1,.17-.52,1.55,1.55,0,0,1,.59-.6,1.94,1.94,0,0,1,1.64-.09,1.43,1.43,0,0,1,.55.38,1.63,1.63,0,0,1,.34.57,2.08,2.08,0,0,1,.12.71v1.59Zm0-.91h1.14v-.66a.73.73,0,0,0-.15-.5.55.55,0,0,0-.42-.16.53.53,0,0,0-.41.16.68.68,0,0,0-.16.5Z"/><path class="cls-1" d="M215.38,58.6h3.45v1.09h-2.29v2.45h2v1.1h-2v3.45h-1.16Z"/><path class="cls-1" d="M219.41,62.86a4.4,4.4,0,0,1,.05-.65,1.67,1.67,0,0,1,.17-.52,1.55,1.55,0,0,1,.59-.6,2,2,0,0,1,1.84,0,1.55,1.55,0,0,1,.59.6,1.67,1.67,0,0,1,.17.52,4.4,4.4,0,0,1,.05.65v1.9a4.4,4.4,0,0,1-.05.65,1.67,1.67,0,0,1-.17.52,1.55,1.55,0,0,1-.59.6,2,2,0,0,1-1.84,0,1.55,1.55,0,0,1-.59-.6,1.67,1.67,0,0,1-.17-.52,4.4,4.4,0,0,1-.05-.65Zm1.16,2.08a.66.66,0,0,0,.16.49.58.58,0,0,0,.82,0,.66.66,0,0,0,.16-.49V62.68a.68.68,0,0,0-.16-.5.61.61,0,0,0-.82,0,.68.68,0,0,0-.16.5Z"/><path class="cls-1" d="M223.72,60.93h1.16v.61a3.33,3.33,0,0,1,.69-.5,1.8,1.8,0,0,1,.84-.18v1.23a.84.84,0,0,0-.35-.07,1.43,1.43,0,0,0-.39.06,1.06,1.06,0,0,0-.39.21,1.17,1.17,0,0,0-.29.39,1.44,1.44,0,0,0-.11.59v3.42h-1.16Z"/><path class="cls-1" d="M226.88,60.93H228v.56h0a1.46,1.46,0,0,1,.44-.45,1.09,1.09,0,0,1,.65-.18,1,1,0,0,1,.62.18,1.74,1.74,0,0,1,.41.4,2.61,2.61,0,0,1,.48-.41,1.36,1.36,0,0,1,.73-.17,1.75,1.75,0,0,1,.44.07,1.15,1.15,0,0,1,.7.69,1.54,1.54,0,0,1,.12.65v4.42h-1.16v-4a.76.76,0,0,0-.15-.5.52.52,0,0,0-.42-.18.49.49,0,0,0-.45.2,1.1,1.1,0,0,0-.13.59v3.88h-1.16v-4a.82.82,0,0,0-.14-.5.52.52,0,0,0-.42-.18.51.51,0,0,0-.46.2,1.21,1.21,0,0,0-.12.59v3.88h-1.16Z"/><path class="cls-1" d="M235.79,66.1h0a2.19,2.19,0,0,1-.46.49,1.09,1.09,0,0,1-.65.17,1.23,1.23,0,0,1-.42-.07,1,1,0,0,1-.41-.22,1.27,1.27,0,0,1-.3-.47,2.13,2.13,0,0,1-.12-.78,4.23,4.23,0,0,1,.08-.85,1.32,1.32,0,0,1,.29-.62,1.29,1.29,0,0,1,.56-.36,2.8,2.8,0,0,1,.9-.12h.25l.3,0v-.6a.91.91,0,0,0-.12-.49.49.49,0,0,0-.45-.19.66.66,0,0,0-.42.15.68.68,0,0,0-.24.43h-1.13a1.91,1.91,0,0,1,.52-1.25,1.87,1.87,0,0,1,.55-.36,1.81,1.81,0,0,1,.72-.13,2.2,2.2,0,0,1,.68.11,1.52,1.52,0,0,1,.55.35,1.71,1.71,0,0,1,.37.56,2.2,2.2,0,0,1,.13.8v4h-1.16Zm0-1.89-.31,0a1.23,1.23,0,0,0-.65.17.75.75,0,0,0-.26.65.82.82,0,0,0,.16.53.5.5,0,0,0,.44.2.56.56,0,0,0,.46-.19.81.81,0,0,0,.16-.54Z"/><path class="cls-1" d="M237.81,59.18H239v1.75h.72v.91H239V65a1.25,1.25,0,0,0,0,.32.37.37,0,0,0,.13.17.48.48,0,0,0,.22.07h.33v1.09h-.48a1.47,1.47,0,0,1-.66-.13,1.18,1.18,0,0,1-.43-.32,1.27,1.27,0,0,1-.23-.43,1.58,1.58,0,0,1-.07-.47v-3.5h-.58v-.91h.58Z"/><path class="cls-1" d="M240.12,58.6h1.16v1.16h-1.16Zm0,2.33h1.16v5.76h-1.16Z"/><path class="cls-1" d="M242.13,62.86a4.4,4.4,0,0,1,.05-.65,1.67,1.67,0,0,1,.17-.52,1.55,1.55,0,0,1,.59-.6,2,2,0,0,1,1.84,0,1.55,1.55,0,0,1,.59.6,1.67,1.67,0,0,1,.17.52,4.4,4.4,0,0,1,.05.65v1.9a4.4,4.4,0,0,1-.05.65,1.67,1.67,0,0,1-.17.52,1.55,1.55,0,0,1-.59.6,2,2,0,0,1-1.84,0,1.55,1.55,0,0,1-.59-.6,1.67,1.67,0,0,1-.17-.52,4.4,4.4,0,0,1-.05-.65Zm1.16,2.08a.7.7,0,0,0,.15.49.57.57,0,0,0,.42.17.53.53,0,0,0,.41-.17.66.66,0,0,0,.16-.49V62.68a.68.68,0,0,0-.16-.5.53.53,0,0,0-.41-.16.57.57,0,0,0-.42.16.73.73,0,0,0-.15.5Z"/><path class="cls-1" d="M246.44,60.93h1.16v.56h0a1.46,1.46,0,0,1,.44-.45,1.09,1.09,0,0,1,.65-.18,1.61,1.61,0,0,1,.43.07,1.08,1.08,0,0,1,.39.25,1.27,1.27,0,0,1,.27.44,1.74,1.74,0,0,1,.1.65v4.42h-1.16v-4a.82.82,0,0,0-.14-.5.6.6,0,0,0-.88,0,1.21,1.21,0,0,0-.12.59v3.88h-1.16Z"/><path class="cls-1" d="M255.28,66.17l-.22.23a1.45,1.45,0,0,1-.23.19,1.18,1.18,0,0,1-.28.12,1.4,1.4,0,0,1-.38.05,1.05,1.05,0,0,1-1-.55,1.83,1.83,0,0,1-.14-.48A5,5,0,0,1,253,65V62.78c0-.42,0-.72,0-.92a1.36,1.36,0,0,1,.15-.48,1.34,1.34,0,0,1,.38-.37,1.24,1.24,0,0,1,.66-.15,1.19,1.19,0,0,1,.6.15,1.48,1.48,0,0,1,.46.44h0V58.6h1.16v8.09h-1.16Zm-1.15-1.36a1,1,0,0,0,.14.57.46.46,0,0,0,.43.22.53.53,0,0,0,.42-.2.85.85,0,0,0,.16-.52V62.64a.6.6,0,0,0-.17-.44.54.54,0,0,0-.41-.18.49.49,0,0,0-.45.2,1,1,0,0,0-.12.48Z"/><path class="cls-1" d="M257.39,58.6h1.16v1.16l-1.16.84Z"/><path class="cls-1" d="M260.85,58.6h1l1.81,8.09h-1.16L262.13,65h-1.58l-.34,1.74h-1.16Zm.49,2.33h0l-.57,2.93h1.16Z"/><path class="cls-1" d="M264.13,60.93h1.15v.52a2.88,2.88,0,0,1,.45-.42,1.11,1.11,0,0,1,.66-.17,1.05,1.05,0,0,1,1,.55,1.38,1.38,0,0,1,.14.47,5.05,5.05,0,0,1,0,.76v2.2c0,.41,0,.72,0,.92a1.37,1.37,0,0,1-.15.47,1.1,1.1,0,0,1-1,.53,1.19,1.19,0,0,1-.6-.16,1.34,1.34,0,0,1-.46-.43h0V69h-1.15Zm2.3,1.87a1,1,0,0,0-.13-.56.48.48,0,0,0-.44-.22.53.53,0,0,0-.42.2.83.83,0,0,0-.16.52V65a.63.63,0,0,0,.17.45.54.54,0,0,0,.41.18.47.47,0,0,0,.45-.21.89.89,0,0,0,.12-.47Z"/><path class="cls-1" d="M268.54,60.93h1.16v.52a2.5,2.5,0,0,1,.45-.42,1.09,1.09,0,0,1,.65-.17,1.06,1.06,0,0,1,1,.55,1.64,1.64,0,0,1,.14.47,5.05,5.05,0,0,1,.05.76v2.2c0,.41,0,.72,0,.92a1.37,1.37,0,0,1-.15.47,1.1,1.1,0,0,1-1,.53,1.19,1.19,0,0,1-.6-.16,1.26,1.26,0,0,1-.46-.43h0V69h-1.16Zm2.31,1.87a1,1,0,0,0-.14-.56.46.46,0,0,0-.43-.22.53.53,0,0,0-.42.2.83.83,0,0,0-.16.52V65a.63.63,0,0,0,.17.45.54.54,0,0,0,.41.18.47.47,0,0,0,.45-.21.89.89,0,0,0,.12-.47Z"/><path class="cls-1" d="M273,60.93h1.16v.61a3.66,3.66,0,0,1,.7-.5,1.74,1.74,0,0,1,.84-.18v1.23a.92.92,0,0,0-.36-.07,1.43,1.43,0,0,0-.39.06,1,1,0,0,0-.38.21,1.05,1.05,0,0,0-.29.39,1.29,1.29,0,0,0-.12.59v3.42H273Z"/><path class="cls-1" d="M277.18,64.25V65a.52.52,0,0,0,.57.57.46.46,0,0,0,.43-.19.86.86,0,0,0,.13-.39h1.16a1.91,1.91,0,0,1-.12.68,1.5,1.5,0,0,1-.34.54,1.64,1.64,0,0,1-.55.38,1.8,1.8,0,0,1-.71.14,1.77,1.77,0,0,1-.92-.23,1.48,1.48,0,0,1-.59-.6,1.46,1.46,0,0,1-.18-.52,4.45,4.45,0,0,1,0-.65v-1.9a4.45,4.45,0,0,1,0-.65,1.46,1.46,0,0,1,.18-.52,1.48,1.48,0,0,1,.59-.6,1.77,1.77,0,0,1,.92-.23,1.89,1.89,0,0,1,.72.14,1.47,1.47,0,0,1,.54.38,1.63,1.63,0,0,1,.34.57,2.08,2.08,0,0,1,.12.71v1.59Zm0-.91h1.13v-.66a.73.73,0,0,0-.15-.5.53.53,0,0,0-.41-.16.54.54,0,0,0-.42.16.73.73,0,0,0-.15.5Z"/><path class="cls-1" d="M280.32,60.93h1.16v.56h0a1.43,1.43,0,0,1,.43-.45,1.12,1.12,0,0,1,.66-.18,1.68,1.68,0,0,1,.43.07,1,1,0,0,1,.38.25,1.15,1.15,0,0,1,.28.44,1.74,1.74,0,0,1,.1.65v4.42h-1.16v-4a.76.76,0,0,0-.15-.5.52.52,0,0,0-.42-.18.49.49,0,0,0-.45.2,1.2,1.2,0,0,0-.13.59v3.88h-1.16Z"/><path class="cls-1" d="M284.74,59.18h1.16v1.75h.72v.91h-.72V65a1.25,1.25,0,0,0,0,.32.37.37,0,0,0,.13.17.44.44,0,0,0,.22.07h.33v1.09h-.48a1.44,1.44,0,0,1-.66-.13,1.18,1.18,0,0,1-.43-.32,1.12,1.12,0,0,1-.23-.43,1.6,1.6,0,0,1-.08-.47v-3.5h-.58v-.91h.58Z"/><path class="cls-1" d="M287.06,58.6h1.16v1.16h-1.16Zm0,2.33h1.16v5.76h-1.16Z"/><path class="cls-1" d="M291.28,62.54a.58.58,0,0,0-.19-.44.6.6,0,0,0-.4-.15.52.52,0,0,0-.43.18.63.63,0,0,0-.14.4.58.58,0,0,0,.08.31.68.68,0,0,0,.41.28l.68.27a1.66,1.66,0,0,1,.89.69,1.88,1.88,0,0,1,.24.94,1.63,1.63,0,0,1-.13.67,1.75,1.75,0,0,1-.9.93,1.79,1.79,0,0,1-1.34,0,1.36,1.36,0,0,1-.54-.33,1.54,1.54,0,0,1-.38-.54A1.89,1.89,0,0,1,289,65h1.09a1,1,0,0,0,.17.44.49.49,0,0,0,.46.21.67.67,0,0,0,.44-.17.54.54,0,0,0,.2-.46.71.71,0,0,0-.12-.41,1,1,0,0,0-.46-.29l-.55-.21a1.83,1.83,0,0,1-.86-.61,1.51,1.51,0,0,1-.31-1,1.63,1.63,0,0,1,.13-.67,1.73,1.73,0,0,1,.37-.54,1.7,1.7,0,0,1,.54-.34,1.65,1.65,0,0,1,.66-.13,1.54,1.54,0,0,1,.65.13,1.76,1.76,0,0,1,.52.35,1.66,1.66,0,0,1,.34.54,1.85,1.85,0,0,1,.13.66Z"/><rect class="cls-2" x="10.3" y="6.59" width="12.8" height="2.47" transform="translate(-0.03 15.59) rotate(-50.01)"/><rect class="cls-3" x="12.64" y="10.85" width="12.6" height="2.47" transform="translate(-1.19 2.11) rotate(-6.19)"/><rect class="cls-4" x="16.27" y="10.3" width="2.47" height="12.8" transform="translate(-6.53 19.38) rotate(-50.02)"/><rect class="cls-5" x="12" y="12.64" width="2.47" height="12.59" transform="translate(-1.97 1.54) rotate(-6.19)"/><rect class="cls-6" x="2.24" y="16.27" width="12.8" height="2.47" transform="translate(-10.33 12.87) rotate(-50.01)"/><rect class="cls-7" x="0.1" y="12" width="12.59" height="2.47" transform="translate(-1.39 0.77) rotate(-6.19)"/><rect class="cls-8" x="6.59" y="2.24" width="2.47" height="12.8" transform="translate(-3.82 9.08) rotate(-50.01)"/><rect class="cls-9" x="10.85" y="0.1" width="2.47" height="12.59" transform="translate(-0.62 1.34) rotate(-6.19)"/><path class="cls-10" d="M26,20.5H23.27v4.14H26a2.07,2.07,0,1,0,0-4.14m.15,6.79H23.27V33H20.32V17.87h5.86a4.72,4.72,0,1,1,0,9.42"/><path class="cls-10" d="M39.39,20.5H36.61v4h2.78a2,2,0,1,0,0-4M41.68,33l-3-6H36.61v6h-3V17.87h5.92a4.57,4.57,0,0,1,4.91,4.63,4.08,4.08,0,0,1-2.76,4L45.1,33Z"/><path class="cls-10" d="M54.51,21.18a2.63,2.63,0,0,0-3.8,0c-.58.64-.72,1.34-.72,4.25s.14,3.61.72,4.24a2.63,2.63,0,0,0,3.8,0c.57-.63.74-1.33.74-4.24s-.17-3.61-.74-4.25m2.18,10.28a5.45,5.45,0,0,1-4.07,1.65,5.52,5.52,0,0,1-4.1-1.65C47,29.93,47,28,47,25.43s0-4.51,1.49-6a5.49,5.49,0,0,1,4.1-1.66,5.42,5.42,0,0,1,4.07,1.66c1.53,1.52,1.51,3.41,1.51,6s0,4.5-1.51,6"/><polygon class="cls-10" points="66.5 32.98 64.3 32.98 59.31 17.87 62.36 17.87 65.4 27.72 68.44 17.87 71.52 17.87 66.5 32.98"/><polygon class="cls-10" points="73.34 32.98 73.34 17.87 83.3 17.87 83.3 20.5 76.29 20.5 76.29 24.05 82.26 24.05 82.26 26.68 76.29 26.68 76.29 30.35 83.3 30.35 83.3 32.98 73.34 32.98"/><polygon class="cls-10" points="95.13 32.98 89.14 23.71 89.14 32.98 86.19 32.98 86.19 17.87 88.82 17.87 94.81 27.12 94.81 17.87 97.76 17.87 97.76 32.98 95.13 32.98"/><path class="cls-10" d="M106.34,33.11a5.57,5.57,0,0,1-4.08-1.65c-1.53-1.53-1.49-3.42-1.49-6s0-4.51,1.49-6a5.58,5.58,0,0,1,4.08-1.66,5.33,5.33,0,0,1,5.56,4.78h-3a2.51,2.51,0,0,0-2.55-2.15,2.43,2.43,0,0,0-1.89.79c-.57.63-.74,1.36-.74,4.27s.17,3.63.74,4.26a2.43,2.43,0,0,0,1.89.79,2.51,2.51,0,0,0,2.55-2.14h3a5.34,5.34,0,0,1-5.56,4.77"/><polygon class="cls-10" points="114.45 32.98 114.45 17.87 124.41 17.87 124.41 20.5 117.4 20.5 117.4 24.05 123.37 24.05 123.37 26.68 117.4 26.68 117.4 30.35 124.41 30.35 124.41 32.98 114.45 32.98"/><path class="cls-11" d="M129.59,13.48a7.37,7.37,0,0,1,4.24-2.61c.56-.13.84.16.84.86,0,.47-.28.76-.84.86a5.7,5.7,0,0,0-3.07,2.1,5.6,5.6,0,0,0-1.21,3.54v.3h4.53c.41,0,.62.32.62.84s-.21.79-.62.83h-4.53V33.07c0,.41-.31.61-.83.61s-.79-.2-.83-.61V18.26a7.32,7.32,0,0,1,1.7-4.78"/><path class="cls-11" d="M134.39,24.48a7.58,7.58,0,0,1,15,1.63A7.61,7.61,0,0,1,137.05,32a7.56,7.56,0,0,1-2.66-4.3c-.12-.55.15-.83.83-.83.51,0,.79.28.83.83a6.07,6.07,0,0,0,2.17,3.08,5.75,5.75,0,0,0,3.56,1.2,5.91,5.91,0,0,0,5.91-5.91,5.9,5.9,0,0,0-11.58-1.63c-.12.55-.41.83-.86.83-.7,0-1-.28-.86-.83"/><path class="cls-11" d="M153.45,21.15a7.21,7.21,0,0,1,4.25-2.62.56.56,0,0,1,.61.19,1,1,0,0,1,.25.68c0,.47-.29.76-.86.86a6.06,6.06,0,0,0-3,2.06,5.82,5.82,0,0,0-1.2,3.57v7.18c0,.41-.32.61-.83.61s-.82-.2-.86-.61V26a7.43,7.43,0,0,1,1.69-4.81"/><path class="cls-11" d="M161.21,18.53a.89.89,0,0,1,.49.11l.19.14,5.66,5.67c.23.22.38.34.46.34s.23-.11.44-.31l5.66-5.67a1.06,1.06,0,0,1,.71-.28c.53,0,.82.29.86.87V32.82c0,.58-.33.86-.86.86a.78.78,0,0,1-.86-.86V22.11c0-.19-.09-.28-.22-.28a.73.73,0,0,0-.46.28l-4.77,4.77c-.25.25-.41.37-.5.37s-.21-.12-.46-.37c-1.72-1.72-3.33-3.33-4.83-4.8-.21-.21-.36-.31-.46-.31s-.19.11-.19.34V32.82c0,.58-.33.86-.86.86s-.84-.28-.86-.86V19.4c0-.58.3-.87.86-.87"/><path class="cls-11" d="M192.34,33.68c-.51,0-.79-.27-.83-.83V32c0-.37-.11-.55-.28-.55a.88.88,0,0,0-.55.27,7.46,7.46,0,0,1-5.08,1.94A7.27,7.27,0,0,1,180.86,32a7.55,7.55,0,0,1-2.65-4.3c-.13-.55.15-.83.83-.83.51,0,.79.28.83.83A6,6,0,0,0,182,30.82a5.92,5.92,0,0,0,7.75-8.9,5.91,5.91,0,0,0-9.86,2.56c-.12.55-.42.83-.89.83-.68,0-1-.28-.83-.83a7.51,7.51,0,0,1,7.39-5.95,6.92,6.92,0,0,1,4.77,1.67l.28.24a.92.92,0,0,0,.58.31c.17,0,.26-.18.28-.55v-.83c0-.56.32-.84.83-.84s.79.28.83.84V32.85c0,.56-.32.83-.83.83"/><path class="cls-11" d="M202.47,21.4q0-1-1.29-1.14h-4.62c-.6,0-.89-.33-.89-.86s.29-.82.89-.87H210c.59,0,.89.33.89.87s-.3.82-.89.86h-4.44q-1.32,0-1.32,1V32.82c0,.58-.33.86-.87.86a.78.78,0,0,1-.86-.86Z"/><path class="cls-11" d="M213.09,18.53q.81,0,.87.87V32.82c0,.58-.33.86-.87.86a.78.78,0,0,1-.86-.86V19.4a.78.78,0,0,1,.86-.87m-.86-6.77a.8.8,0,0,1,.9-.92.81.81,0,0,1,.92.92.82.82,0,0,1-.92.92.81.81,0,0,1-.9-.92"/><path class="cls-11" d="M216.54,24.48a7.59,7.59,0,0,1,15,1.63A7.61,7.61,0,0,1,219.21,32a7.52,7.52,0,0,1-2.67-4.3c-.12-.55.16-.83.83-.83a.77.77,0,0,1,.84.83,6,6,0,0,0,2.17,3.08,5.91,5.91,0,0,0,9.47-4.71,5.9,5.9,0,0,0-11.58-1.63c-.13.55-.41.83-.86.83-.7,0-1-.28-.87-.83"/><path class="cls-11" d="M234.8,18.5a1,1,0,0,1,.68.28L247,30.3c.16.16.28.24.34.24s.14-.08.12-.24V19.37c0-.58.33-.87.86-.87a.82.82,0,0,1,.9.87V32.79a.84.84,0,0,1-.68.86,1.07,1.07,0,0,1-.25,0,1,1,0,0,1-.64-.27L236.31,22a.84.84,0,0,0-.49-.3c-.12,0-.18.11-.15.34V32.82c0,.58-.33.86-.87.86a.78.78,0,0,1-.86-.86V19.37a.8.8,0,0,1,.86-.87"/></g></g></svg>