<svg xmlns="http://www.w3.org/2000/svg" viewBox="0 0 291.66 69.53"><defs><style>.cls-1{font-size:11.36px;fill:#636275;font-family:DINEngschriftLT, DINEngschrift LT;}.cls-2{fill:#e6007e;}.cls-3{fill:#f39200;}.cls-4{fill:#fcea10;}.cls-5{fill:#c8d419;}.cls-6{fill:#00abd7;}.cls-7{fill:#951b81;}.cls-8{fill:#9d9d9c;}.cls-9{fill:#e30613;}.cls-10{fill:#616271;}.cls-11{fill:#e94f2d;}</style></defs><title>7lyc-CFE-UFA</title><g id="Calque_2" data-name="Calque 2"><g id="Calque_1-2" data-name="Calque 1"><text class="cls-1" transform="translate(0 53.05)">7 lycées privés sous contrat avec l’État</text><text class="cls-1" transform="translate(0 66.69)">Centres de Formation d’Enseignement Supérieur - Unités de Formation d’Apprentis</text><rect class="cls-2" x="10.3" y="6.59" width="12.8" height="2.47" transform="translate(-0.03 15.59) rotate(-50.01)"/><rect class="cls-3" x="12.64" y="10.85" width="12.6" height="2.47" transform="translate(-1.19 2.11) rotate(-6.19)"/><rect class="cls-4" x="16.27" y="10.3" width="2.47" height="12.8" transform="translate(-6.53 19.38) rotate(-50.02)"/><rect class="cls-5" x="12" y="12.64" width="2.47" height="12.59" transform="translate(-1.97 1.54) rotate(-6.19)"/><rect class="cls-6" x="2.24" y="16.27" width="12.8" height="2.47" transform="translate(-10.33 12.87) rotate(-50.01)"/><rect class="cls-7" x="0.1" y="12" width="12.59" height="2.47" transform="translate(-1.39 0.77) rotate(-6.19)"/><rect class="cls-8" x="6.59" y="2.24" width="2.47" height="12.8" transform="translate(-3.82 9.08) rotate(-50.01)"/><rect class="cls-9" x="10.85" y="0.1" width="2.47" height="12.59" transform="translate(-0.62 1.34) rotate(-6.19)"/><path class="cls-10" d="M26,20.5H23.27v4.14H26a2.07,2.07,0,1,0,0-4.14m.15,6.79H23.27V33H20.32V17.87h5.86a4.72,4.72,0,1,1,0,9.42"/><path class="cls-10" d="M39.39,20.5H36.61v4h2.78a2,2,0,1,0,0-4M41.68,33l-3-6H36.61v6h-3V17.87h5.92a4.57,4.57,0,0,1,4.91,4.63,4.08,4.08,0,0,1-2.76,4L45.1,33Z"/><path class="cls-10" d="M54.51,21.18a2.63,2.63,0,0,0-3.8,0c-.58.64-.72,1.34-.72,4.25s.14,3.61.72,4.24a2.63,2.63,0,0,0,3.8,0c.57-.63.74-1.33.74-4.24s-.17-3.61-.74-4.25m2.18,10.28a5.45,5.45,0,0,1-4.07,1.65,5.52,5.52,0,0,1-4.1-1.65C47,29.93,47,28,47,25.43s0-4.51,1.49-6a5.49,5.49,0,0,1,4.1-1.66,5.42,5.42,0,0,1,4.07,1.66c1.53,1.52,1.51,3.41,1.51,6s0,4.5-1.51,6"/><polygon class="cls-10" points="66.5 32.98 64.3 32.98 59.31 17.87 62.36 17.87 65.4 27.72 68.44 17.87 71.52 17.87 66.5 32.98"/><polygon class="cls-10" points="73.34 32.98 73.34 17.87 83.3 17.87 83.3 20.5 76.29 20.5 76.29 24.05 82.26 24.05 82.26 26.68 76.29 26.68 76.29 30.35 83.3 30.35 83.3 32.98 73.34 32.98"/><polygon class="cls-10" points="95.13 32.98 89.14 23.71 89.14 32.98 86.19 32.98 86.19 17.87 88.82 17.87 94.81 27.12 94.81 17.87 97.76 17.87 97.76 32.98 95.13 32.98"/><path class="cls-10" d="M106.34,33.11a5.57,5.57,0,0,1-4.08-1.65c-1.53-1.53-1.49-3.42-1.49-6s0-4.51,1.49-6a5.58,5.58,0,0,1,4.08-1.66,5.33,5.33,0,0,1,5.56,4.78h-3a2.51,2.51,0,0,0-2.55-2.15,2.43,2.43,0,0,0-1.89.79c-.57.63-.74,1.36-.74,4.27s.17,3.63.74,4.26a2.43,2.43,0,0,0,1.89.79,2.51,2.51,0,0,0,2.55-2.14h3a5.34,5.34,0,0,1-5.56,4.77"/><polygon class="cls-10" points="114.45 32.98 114.45 17.87 124.41 17.87 124.41 20.5 117.4 20.5 117.4 24.05 123.37 24.05 123.37 26.68 117.4 26.68 117.4 30.35 124.41 30.35 124.41 32.98 114.45 32.98"/><path class="cls-11" d="M129.59,13.48a7.37,7.37,0,0,1,4.24-2.61c.56-.13.84.16.84.86,0,.47-.28.76-.84.86a5.7,5.7,0,0,0-3.07,2.1,5.6,5.6,0,0,0-1.21,3.54v.3h4.53c.41,0,.62.32.62.84s-.21.79-.62.83h-4.53V33.07c0,.41-.31.61-.83.61s-.79-.2-.83-.61V18.26a7.32,7.32,0,0,1,1.7-4.78"/><path class="cls-11" d="M134.39,24.48a7.58,7.58,0,0,1,15,1.63A7.61,7.61,0,0,1,137.05,32a7.56,7.56,0,0,1-2.66-4.3c-.12-.55.15-.83.83-.83.51,0,.79.28.83.83a6.07,6.07,0,0,0,2.17,3.08,5.75,5.75,0,0,0,3.56,1.2,5.91,5.91,0,0,0,5.91-5.91,5.9,5.9,0,0,0-11.58-1.63c-.12.55-.41.83-.86.83-.7,0-1-.28-.86-.83"/><path class="cls-11" d="M153.45,21.15a7.21,7.21,0,0,1,4.25-2.62.56.56,0,0,1,.61.19,1,1,0,0,1,.25.68c0,.47-.29.76-.86.86a6.06,6.06,0,0,0-3,2.06,5.82,5.82,0,0,0-1.2,3.57v7.18c0,.41-.32.61-.83.61s-.82-.2-.86-.61V26a7.43,7.43,0,0,1,1.69-4.81"/><path class="cls-11" d="M161.21,18.53a.89.89,0,0,1,.49.11l.19.14,5.66,5.67c.23.22.38.34.46.34s.23-.11.44-.31l5.66-5.67a1.06,1.06,0,0,1,.71-.28c.53,0,.82.29.86.87V32.82c0,.58-.33.86-.86.86a.78.78,0,0,1-.86-.86V22.11c0-.19-.09-.28-.22-.28a.73.73,0,0,0-.46.28l-4.77,4.77c-.25.25-.41.37-.5.37s-.21-.12-.46-.37c-1.72-1.72-3.33-3.33-4.83-4.8-.21-.21-.36-.31-.46-.31s-.19.11-.19.34V32.82c0,.58-.33.86-.86.86s-.84-.28-.86-.86V19.4c0-.58.3-.87.86-.87"/><path class="cls-11" d="M192.34,33.68c-.51,0-.79-.27-.83-.83V32c0-.37-.11-.55-.28-.55a.88.88,0,0,0-.55.27,7.46,7.46,0,0,1-5.08,1.94A7.27,7.27,0,0,1,180.86,32a7.55,7.55,0,0,1-2.65-4.3c-.13-.55.15-.83.83-.83.51,0,.79.28.83.83A6,6,0,0,0,182,30.82a5.92,5.92,0,0,0,7.75-8.9,5.91,5.91,0,0,0-9.86,2.56c-.12.55-.42.83-.89.83-.68,0-1-.28-.83-.83a7.51,7.51,0,0,1,7.39-5.95,6.92,6.92,0,0,1,4.77,1.67l.28.24a.92.92,0,0,0,.58.31c.17,0,.26-.18.28-.55v-.83c0-.56.32-.84.83-.84s.79.28.83.84V32.85c0,.56-.32.83-.83.83"/><path class="cls-11" d="M202.47,21.4q0-1-1.29-1.14h-4.62c-.6,0-.89-.33-.89-.86s.29-.82.89-.87H210c.59,0,.89.33.89.87s-.3.82-.89.86h-4.44q-1.32,0-1.32,1V32.82c0,.58-.33.86-.87.86a.78.78,0,0,1-.86-.86Z"/><path class="cls-11" d="M213.09,18.53q.81,0,.87.87V32.82c0,.58-.33.86-.87.86a.78.78,0,0,1-.86-.86V19.4a.78.78,0,0,1,.86-.87m-.86-6.77a.8.8,0,0,1,.9-.92.81.81,0,0,1,.92.92.82.82,0,0,1-.92.92.81.81,0,0,1-.9-.92"/><path class="cls-11" d="M216.54,24.48a7.59,7.59,0,0,1,15,1.63A7.61,7.61,0,0,1,219.21,32a7.52,7.52,0,0,1-2.67-4.3c-.12-.55.16-.83.83-.83a.77.77,0,0,1,.84.83,6,6,0,0,0,2.17,3.08,5.91,5.91,0,0,0,9.47-4.71,5.9,5.9,0,0,0-11.58-1.63c-.13.55-.41.83-.86.83-.7,0-1-.28-.87-.83"/><path class="cls-11" d="M234.8,18.5a1,1,0,0,1,.68.28L247,30.3c.16.16.28.24.34.24s.14-.08.12-.24V19.37c0-.58.33-.87.86-.87a.82.82,0,0,1,.9.87V32.79a.84.84,0,0,1-.68.86,1.07,1.07,0,0,1-.25,0,1,1,0,0,1-.64-.27L236.31,22a.84.84,0,0,0-.49-.3c-.12,0-.18.11-.15.34V32.82c0,.58-.33.86-.87.86a.78.78,0,0,1-.86-.86V19.37a.8.8,0,0,1,.86-.87"/></g></g></svg>