<svg xmlns="http://www.w3.org/2000/svg" xmlns:xlink="http://www.w3.org/1999/xlink" width="1346.34" height="138.27" viewBox="0 0 1346.34 138.27"><defs><style>.cls-1{fill:#fff;}.cls-2{clip-path:url(#clip-path);}</style><clipPath id="clip-path"><rect class="cls-1" x="278.42" y="7.04" width="98.5" height="100.32"/></clipPath></defs><title>bg_acces_contact_blanc_transp</title><g id="Calque_2" data-name="Calque 2"><g id="Rubriques_directes" data-name="Rubriques directes"><path class="cls-1" d="M120.26,9.34H12.44A12.46,12.46,0,0,0,0,21.79V89.54A12.45,12.45,0,0,0,12.44,102H120.26a12.45,12.45,0,0,0,12.45-12.44V21.79A12.46,12.46,0,0,0,120.26,9.34Zm-2,8.29L66.36,55.05,14.48,17.63Zm2,76.05H12.44a4.15,4.15,0,0,1-4.15-4.14V23.41L63.93,63.53a4.11,4.11,0,0,0,2.43.78,4.06,4.06,0,0,0,2.42-.78l55.64-40.12V89.54a4.15,4.15,0,0,1-4.16,4.14Z"/><path class="cls-1" d="M926.12,136.41a6,6,0,0,0,4.38,1.86c2.16,0,4.3-1.05,6.38-3.12l25.86-25.84a19.6,19.6,0,0,1,11.48-4.75h62.07A12.71,12.71,0,0,0,1049,91.87V24.07a12.71,12.71,0,0,0-12.71-12.69H926.54a12.71,12.71,0,0,0-12.71,12.69v67.8c0,7.1,4.35,12.67,9.77,12.67h0c.42.2,1.36,1.64,1.26,4.07l-.89,20.9c-.12,3,.58,5.32,2.11,6.9Zm-2.2-40.3h0c-.44-.17-1.57-1.67-1.57-4.24V24.07a4.23,4.23,0,0,1,4.24-4.22h109.75a4.21,4.21,0,0,1,4.22,4.22v67.8a4.24,4.24,0,0,1-4.22,4.24H974.22a27.46,27.46,0,0,0-17.46,7.22l-24.18,24.14.79-18.5A13.78,13.78,0,0,0,930,98.84a8.48,8.48,0,0,0-6-2.73Z"/><path class="cls-1" d="M938.75,41.88h85.31a4.23,4.23,0,1,0,0-8.45H938.75a4.23,4.23,0,1,0,0,8.45Z"/><path class="cls-1" d="M938.75,63h85.31a4.23,4.23,0,1,0,0-8.46H938.75a4.23,4.23,0,1,0,0,8.46Z"/><path class="cls-1" d="M938.75,84.28h59.72a4.24,4.24,0,1,0,0-8.47H938.75a4.24,4.24,0,1,0,0,8.47Z"/><rect class="cls-1" x="278.42" y="7.04" width="98.5" height="100.32"/><g class="cls-2"><path class="cls-1" d="M369.82,14.14a20.07,20.07,0,0,0-28.41,0L323.81,31.8a3.08,3.08,0,0,0,4.34,4.36L345.74,18.5a14,14,0,0,1,19.74,19.79L342.24,61.61a13.93,13.93,0,0,1-19.74,0,3,3,0,0,0-4.34,0,3.1,3.1,0,0,0,0,4.35,20,20,0,0,0,28.42,0l23.24-23.31a20.24,20.24,0,0,0,0-28.51Z"/><path class="cls-1" d="M325.56,78l-17.2,17.25a13.91,13.91,0,0,1-19.72,0,14,14,0,0,1,0-19.79l23.23-23.31a13.94,13.94,0,0,1,19.74,0A3.08,3.08,0,0,0,336,47.81a20.07,20.07,0,0,0-28.42,0L284.3,71.12a20.22,20.22,0,0,0,0,28.51,20.05,20.05,0,0,0,28.41,0L329.9,82.38A3.08,3.08,0,1,0,325.56,78Z"/></g><path class="cls-1" d="M713.67,8.09a8.21,8.21,0,0,0-5.82-2.34,8.31,8.31,0,0,0-5.78,2.45l-3.72,3.71,0,.05-48.5,48.37a2.26,2.26,0,0,0-.36.53,3.29,3.29,0,0,0-.5.77L644,73a3.1,3.1,0,0,0,2.85,4.32,2.92,2.92,0,0,0,1.09-.2l11.9-4.47a3.38,3.38,0,0,0,.88-.53,3.15,3.15,0,0,0,.55-.38L710,23.21l0,0,3.56-3.54a8.17,8.17,0,0,0,.11-11.55ZM659.09,65.21l-2.7-2.7L700.7,18.33,703.4,21Zm50.09-49.95-1.39,1.39L705.07,14l1.39-1.38a2.11,2.11,0,0,1,1.48-.64,1.82,1.82,0,0,1,1.34.54,2,2,0,0,1-.1,2.79Z"/><path class="cls-1" d="M707.57,39.57a3.09,3.09,0,0,0-3.09,3.1V93.76a3.11,3.11,0,0,1-3.1,3.09H628a3.1,3.1,0,0,1-3.1-3.09V20.62a3.09,3.09,0,0,1,3.1-3.08H678.8a3.1,3.1,0,1,0,0-6.19H628a9.3,9.3,0,0,0-9.3,9.27V93.76A9.3,9.3,0,0,0,628,103h73.35a9.3,9.3,0,0,0,9.3-9.27V42.67a3.1,3.1,0,0,0-3.11-3.1Z"/><path class="cls-1" d="M1346.34,22.48a12.35,12.35,0,0,0-12.29-12.39h-13v-6a4.1,4.1,0,1,0-8.19,0v6h-64.29v-6a4.1,4.1,0,1,0-8.2,0v6h-12.81a12.35,12.35,0,0,0-12.29,12.39V41.34a3.46,3.46,0,0,0,.13.64,3.46,3.46,0,0,0-.13.64v76.07a12.34,12.34,0,0,0,12.29,12.38h106.49a12.35,12.35,0,0,0,12.29-12.39V42.62a3.46,3.46,0,0,0-.13-.64,3.46,3.46,0,0,0,.13-.64Zm-8.19,96.2a4.12,4.12,0,0,1-4.1,4.13H1227.56a4.12,4.12,0,0,1-4.1-4.13V46.75h114.69Zm0-80.19H1223.46v-16a4.12,4.12,0,0,1,4.1-4.13h12.81v6a4.1,4.1,0,1,0,8.2,0v-6h64.29v6a4.1,4.1,0,1,0,8.2,0v-6h13a4.12,4.12,0,0,1,4.1,4.13Z"/><path class="cls-1" d="M1262.75,69.28a4.1,4.1,0,1,1-4.1-4.13,4.12,4.12,0,0,1,4.1,4.13Z"/><path class="cls-1" d="M1282.55,69.28a4.1,4.1,0,1,1-4.1-4.13,4.11,4.11,0,0,1,4.1,4.13Z"/><path class="cls-1" d="M1304.69,69.28a4.1,4.1,0,1,1-4.1-4.13,4.11,4.11,0,0,1,4.1,4.13Z"/><path class="cls-1" d="M1327.29,69.28a4.1,4.1,0,1,1-4.1-4.13,4.11,4.11,0,0,1,4.1,4.13Z"/><path class="cls-1" d="M1242.51,83.57a4.1,4.1,0,1,1-4.09-4.13,4.11,4.11,0,0,1,4.09,4.13Z"/><path class="cls-1" d="M1262.75,83.57a4.1,4.1,0,1,1-4.1-4.13,4.12,4.12,0,0,1,4.1,4.13Z"/><path class="cls-1" d="M1282.55,83.57a4.1,4.1,0,1,1-4.1-4.13,4.11,4.11,0,0,1,4.1,4.13Z"/><path class="cls-1" d="M1304.69,83.57a4.1,4.1,0,1,1-4.1-4.13,4.11,4.11,0,0,1,4.1,4.13Z"/><path class="cls-1" d="M1327.29,83.57a4.1,4.1,0,1,1-4.1-4.13,4.11,4.11,0,0,1,4.1,4.13Z"/><path class="cls-1" d="M1242.51,97.8a4.1,4.1,0,1,1-4.09-4.13,4.11,4.11,0,0,1,4.09,4.13Z"/><path class="cls-1" d="M1262.75,97.8a4.1,4.1,0,1,1-4.1-4.13,4.12,4.12,0,0,1,4.1,4.13Z"/><path class="cls-1" d="M1282.55,97.8a4.1,4.1,0,1,1-4.1-4.13,4.11,4.11,0,0,1,4.1,4.13Z"/><path class="cls-1" d="M1304.69,97.8a4.1,4.1,0,1,1-4.1-4.13,4.11,4.11,0,0,1,4.1,4.13Z"/><path class="cls-1" d="M1327.29,97.8a4.1,4.1,0,1,1-4.1-4.13,4.11,4.11,0,0,1,4.1,4.13Z"/><path class="cls-1" d="M1242.51,112.1a4.1,4.1,0,1,1-4.09-4.13,4.1,4.1,0,0,1,4.09,4.13Z"/><path class="cls-1" d="M1262.75,112.1a4.1,4.1,0,1,1-4.1-4.13,4.11,4.11,0,0,1,4.1,4.13Z"/><path class="cls-1" d="M1282.55,112.1a4.1,4.1,0,1,1-4.1-4.13,4.1,4.1,0,0,1,4.1,4.13Z"/></g></g></svg>