<svg xmlns="http://www.w3.org/2000/svg" xmlns:xlink="http://www.w3.org/1999/xlink" viewBox="0 0 1119.01 132.52"><defs><style>.cls-1{fill:none;}.cls-2{fill:#fff;}.cls-3{clip-path:url(#clip-path);}</style><clipPath id="clip-path"><rect class="cls-1" x="348.42" y="1.29" width="98.5" height="100.32"/></clipPath></defs><title>bg_acces_contact_blanc_transp</title><g id="Calque_2" data-name="Calque 2"><g id="Rubriques_directes" data-name="Rubriques directes"><path class="cls-2" d="M120.26,3.59H12.44A12.46,12.46,0,0,0,0,16V83.79A12.46,12.46,0,0,0,12.44,96.24H120.26a12.46,12.46,0,0,0,12.45-12.45V16A12.46,12.46,0,0,0,120.26,3.59Zm-2,8.29L66.36,49.3,14.48,11.88Zm2,76.05H12.44a4.15,4.15,0,0,1-4.15-4.14V17.66L63.93,57.78a4.11,4.11,0,0,0,2.43.78,4.06,4.06,0,0,0,2.42-.78l55.64-40.12V83.79a4.15,4.15,0,0,1-4.16,4.14Z"/><path class="cls-2" d="M996.12,130.66a6.05,6.05,0,0,0,4.38,1.86c2.16,0,4.31-1.05,6.39-3.12l25.85-25.84a19.63,19.63,0,0,1,11.48-4.75h62.07A12.72,12.72,0,0,0,1119,86.12V18.32a12.72,12.72,0,0,0-12.72-12.69H996.54a12.71,12.71,0,0,0-12.71,12.69v67.8c0,7.1,4.35,12.67,9.78,12.67h0c.41.2,1.36,1.64,1.26,4.07l-.89,20.9c-.13,3,.58,5.32,2.1,6.9Zm-2.19-40.3h0c-.45-.17-1.57-1.67-1.57-4.24V18.32a4.24,4.24,0,0,1,4.23-4.22h109.75a4.22,4.22,0,0,1,4.23,4.22v67.8a4.25,4.25,0,0,1-4.23,4.24h-62.07a27.48,27.48,0,0,0-17.46,7.22l-24.17,24.14.78-18.5A13.78,13.78,0,0,0,1000,93.09a8.49,8.49,0,0,0-6-2.73Z"/><path class="cls-2" d="M1008.75,36.13h85.31a4.23,4.23,0,1,0,0-8.45h-85.31a4.23,4.23,0,1,0,0,8.45Z"/><path class="cls-2" d="M1008.75,57.3h85.31a4.24,4.24,0,1,0,0-8.47h-85.31a4.24,4.24,0,0,0,0,8.47Z"/><path class="cls-2" d="M1008.75,78.53h59.72a4.24,4.24,0,1,0,0-8.47h-59.72a4.24,4.24,0,0,0,0,8.47Z"/><g class="cls-3"><path class="cls-2" d="M439.83,8.39a20.09,20.09,0,0,0-28.42,0l-17.6,17.66a3.08,3.08,0,0,0,4.35,4.36l17.59-17.66a14,14,0,0,1,19.74,19.79L412.24,55.86a13.92,13.92,0,0,1-19.73,0,3.07,3.07,0,0,0-4.34,4.35,20,20,0,0,0,28.41,0L439.83,36.9a20.24,20.24,0,0,0,0-28.51Z"/><path class="cls-2" d="M395.56,72.27,378.37,89.52a13.92,13.92,0,0,1-19.73,0,14,14,0,0,1,0-19.79l23.24-23.31a13.93,13.93,0,0,1,19.73,0A3.08,3.08,0,0,0,406,42.06a20.07,20.07,0,0,0-28.42,0L354.3,65.37a20.22,20.22,0,0,0,0,28.51,20.05,20.05,0,0,0,28.41,0l17.2-17.25a3.08,3.08,0,1,0-4.35-4.36Z"/></g><path class="cls-2" d="M783.67,2.34A8.19,8.19,0,0,0,777.85,0a8.29,8.29,0,0,0-5.77,2.45l-3.72,3.71s0,0,0,0l-48.5,48.37a2.42,2.42,0,0,0-.36.54,2.91,2.91,0,0,0-.49.76l-5,11.4a3.1,3.1,0,0,0,2.85,4.32,3,3,0,0,0,1.09-.2l11.9-4.47a3.49,3.49,0,0,0,.87-.53,3.67,3.67,0,0,0,.56-.38L780,17.46s0,0,0,0l3.57-3.54a8.18,8.18,0,0,0,.1-11.55ZM729.1,59.46l-2.7-2.7,44.31-44.18,2.7,2.69ZM779.18,9.52l-1.39,1.38-2.71-2.7,1.38-1.38a2.13,2.13,0,0,1,1.48-.64,1.85,1.85,0,0,1,1.34.54,2,2,0,0,1-.1,2.8Z"/><path class="cls-2" d="M777.58,33.82a3.1,3.1,0,0,0-3.1,3.1V88a3.1,3.1,0,0,1-3.1,3.09H698A3.09,3.09,0,0,1,694.94,88V14.87A3.08,3.08,0,0,1,698,11.79H748.8a3.1,3.1,0,1,0,0-6.19H698a9.3,9.3,0,0,0-9.3,9.27V88a9.3,9.3,0,0,0,9.3,9.27h73.35a9.3,9.3,0,0,0,9.3-9.27V36.92a3.1,3.1,0,0,0-3.1-3.1Z"/></g></g></svg>