<svg xmlns="http://www.w3.org/2000/svg" width="52.58" height="52.48" viewBox="0 0 52.58 52.48"><defs><style>.cls-1{fill:#fff;stroke:#fff;stroke-miterlimit:10;}</style></defs><title>push-pin-blanc</title><g id="Calque_2" data-name="Calque 2"><g id="Calque_1-2" data-name="Calque 1"><path class="cls-1" d="M12.68,19.82a1.77,1.77,0,0,0-2.52,0L5.39,24.58a1.79,1.79,0,0,0,0,2.52l6.25,6.24-.13.13L.8,49.1a1.76,1.76,0,0,0,.1,2.1h0l0,0a.91.91,0,0,0,.08.13l.06,0,.05.06s.08.05.12.09l0,0h0a1.78,1.78,0,0,0,2.11.09L19,41s.08-.09.13-.13l6,6a1.8,1.8,0,0,0,2.53,0l4.76-4.76a1.77,1.77,0,0,0,0-2.52l-1.31-1.31L44.63,24.68l5.83-.54a1.77,1.77,0,0,0,1.1-3L31.47,1a1.78,1.78,0,0,0-3,1.1l-.5,5.45L14.19,21.32ZM8.93,43.55l5.25-7.66,2.41,2.41ZM46.34,20.94l-1.66.15a1.79,1.79,0,0,0-1.91.39L27.3,37a1.77,1.77,0,0,0,0,2.52l1.3,1.31L26.37,43,9.18,25.84l2.24-2.23,1.5,1.5a1.79,1.79,0,0,0,2.53,0L30.92,9.64a1.53,1.53,0,0,0,.14-.21,1.25,1.25,0,0,0,.31-.67,1.87,1.87,0,0,0,.07-.22l.21-2.3Z"/></g></g></svg>